<svg xmlns="http://www.w3.org/2000/svg" width="100%" height="100%" viewBox="0 0 124 38" fill="none" preserveAspectRatio="xMidYMid meet" aria-hidden="true" role="img">
<path d="M1.09595 31.8838H2.28942V36.224H4.99431V37.309H1.09595V31.8838Z" fill="currentColor"/>
<path d="M17.3661 31.8838H21.4585V32.9457H18.5519V34.0465H21.1099V35.1084H18.5519V36.2476H21.4974V37.3095H17.3661V31.8838Z" fill="currentColor"/>
<path d="M35.8919 31.8449H36.9927L39.3182 37.309H38.0704L37.5743 36.0919H35.28L34.7839 37.309H33.5669L35.8919 31.8449ZM37.1473 35.0383L36.4264 33.279L35.7055 35.0383H37.1473Z" fill="currentColor"/>
<path d="M51.6276 31.8838H54.1077C54.7974 31.8838 55.3324 32.0774 55.6888 32.4342C55.9908 32.7363 56.1536 33.1628 56.1536 33.6743V33.6897C56.1536 34.5657 55.6811 35.1156 54.9909 35.3716L56.3165 37.3095H54.9213L53.7585 35.5733H52.8205V37.3095H51.6271L51.6276 31.8838ZM54.0304 34.5191C54.6115 34.5191 54.9448 34.2093 54.9448 33.7516V33.7363C54.9448 33.2248 54.5885 32.9611 54.0068 32.9611H52.821V34.5191H54.0304Z" fill="currentColor"/>
<path d="M68.7038 31.8838H69.8046L72.3467 35.2246V31.8838H73.5248V37.3095H72.5095L69.8819 33.8602V37.3095H68.7038V31.8838Z" fill="currentColor"/>
<path d="M86.354 31.8838H87.5475V37.3095H86.354V31.8838Z" fill="currentColor"/>
<path d="M100.376 31.8838H101.477L104.019 35.2246V31.8838H105.197V37.3095H104.182L101.554 33.8602V37.3095H100.376V31.8838Z" fill="currentColor"/>
<path d="M117.732 34.6118V34.5964C117.732 33.0537 118.933 31.7906 120.576 31.7906C121.553 31.7906 122.142 32.0543 122.708 32.5346L121.956 33.4413C121.538 33.0927 121.166 32.8909 120.538 32.8909C119.67 32.8909 118.98 33.6584 118.98 34.5805V34.5959C118.98 35.5881 119.662 36.3167 120.623 36.3167C121.057 36.3167 121.445 36.2082 121.747 35.9911V35.2159H120.546V34.1853H122.902V36.5415C122.344 37.0141 121.576 37.4016 120.585 37.4016C118.895 37.4016 117.732 36.2164 117.732 34.6118Z" fill="currentColor"/>
<path d="M58.0676 25.5581L57.9965 0.598145H54.1811L44.4387 17.1378L34.5341 0.598145H30.7187V25.5581H35.1403V9.2412L43.3415 22.7411H45.4453L53.6107 8.98213V25.5581H58.0676Z" fill="currentColor"/>
<path d="M93.6837 25.5581L87.9468 17.3718C88.0717 17.3211 88.1961 17.2694 88.3175 17.2146C89.898 16.5014 91.1166 15.4912 91.9721 14.1841C92.8282 12.8769 93.2557 11.3076 93.2557 9.47725C93.2557 7.64685 92.8277 6.03098 91.9721 4.69927C91.1166 3.36858 89.898 2.35227 88.3175 1.65083C86.7364 0.949901 84.841 0.59867 82.6302 0.59867H72.361V25.5586H76.9967V18.2847H82.6302C82.9625 18.2847 83.2871 18.2754 83.6055 18.2596L88.6923 25.5586L93.6837 25.5581ZM87.0339 5.82208C88.0681 6.68992 88.5847 7.90797 88.5847 9.47673C88.5847 11.0455 88.0676 12.2702 87.0339 13.1498C85.9996 14.0294 84.4606 14.4692 82.4162 14.4692H76.9962V4.52058H82.4162C84.4601 4.52058 85.9996 4.95425 87.0339 5.82208Z" fill="currentColor"/>
<path d="M67.5083 0.598145H62.8726V25.5724H67.5083V0.598145Z" fill="currentColor"/>
<path d="M15.7401 18.8494C20.2862 18.8494 24.1856 21.6162 25.8475 25.5581H31.0121L18.7097 0.598145H12.7706L0.46875 25.5581H5.63329C7.29472 21.6162 11.1936 18.8494 15.7401 18.8494ZM15.7401 5.04281L20.6558 15.016C19.1014 14.4984 17.4466 14.2199 15.7401 14.2199C14.0337 14.2199 12.3789 14.4984 10.8244 15.016L15.7401 5.04281Z" fill="currentColor"/>
<path d="M108.257 18.8494C112.803 18.8494 116.703 21.6162 118.365 25.5581H123.529L111.227 0.598145H105.288L92.986 25.5581H98.1505C99.812 21.6162 103.711 18.8494 108.257 18.8494ZM108.257 5.04281L113.173 15.016C111.619 14.4984 109.964 14.2199 108.257 14.2199C106.551 14.2199 104.896 14.4984 103.342 15.016L108.257 5.04281Z" fill="currentColor"/>
</svg>