<svg width="242" height="32" viewBox="0 0 242 32" fill="none" xmlns="http://www.w3.org/2000/svg">
<g clip-path="url(#clip0_7346_2864)">
<path d="M86.8105 20.5178C86.8105 13.7112 91.3834 8.57617 97.6609 8.57617C100.299 8.57617 101.078 9.299 102.552 9.299C103.553 9.299 103.709 8.8397 104.39 8.8397C104.969 8.8397 105.198 9.10323 105.295 9.78841C105.487 11.2265 105.873 13.8468 105.969 14.5319C106.065 15.4129 105.584 15.8044 105.035 15.8044C102.908 15.8044 103.138 10.5715 98.3724 10.5715C94.4443 10.5715 91.9689 14.4341 91.9689 18.7484C91.9689 24.3126 94.9928 27.8439 99.8547 27.8439C103.812 27.8439 104.746 24.7343 105.969 25.6228C107.125 26.5037 105.035 32.0002 98.0833 32.0002C91.7095 32.0002 86.8105 27.7159 86.8105 20.5178Z" fill="#292331"/>
<path d="M106.902 24.2148C106.902 19.539 110.215 16.4595 114.884 16.4595C119.554 16.4595 122.867 19.5315 122.867 24.2148C122.867 28.8981 119.554 32.0002 114.884 32.0002C110.215 32.0002 106.902 28.8905 106.902 24.2148ZM114.892 30.2007C116.826 30.2007 117.886 27.4825 117.886 24.2148C117.886 20.947 116.826 18.2289 114.892 18.2289C112.957 18.2289 111.898 20.947 111.898 24.2148C111.898 27.4825 112.995 30.2007 114.892 30.2007Z" fill="#292331"/>
<path d="M123.2 31.4051C123.2 30.72 123.912 30.7802 123.912 29.0861V19.8927C123.912 18.191 123.2 18.3266 123.2 17.7016C123.2 17.4757 123.363 17.3101 123.615 17.2423C124.03 17.1444 126.773 16.655 127.669 16.4894C128.507 16.3237 128.796 16.655 128.796 17.2423V18.4847C129.7 17.408 131.116 16.4593 133.332 16.4593C135.229 16.4593 136.645 17.3101 137.356 19.1774C138.194 17.8673 139.676 16.4593 142.381 16.4593C145.086 16.4593 146.887 18.2287 146.887 22.2193V29.0861C146.887 30.7877 147.599 30.72 147.599 31.4051C147.599 31.631 147.436 31.7289 147.184 31.7289H141.707C141.484 31.7289 141.292 31.631 141.292 31.4051C141.292 30.72 142.003 30.7802 142.003 29.0861V22.6108C142.003 20.7435 141.581 19.1774 140.009 19.1774C138.757 19.1774 137.853 20.4197 137.853 22.4828V29.0936C137.853 30.7953 138.564 30.7275 138.564 31.4127C138.564 31.6386 138.401 31.7364 138.142 31.7364H132.672C132.413 31.7364 132.257 31.6386 132.257 31.4127C132.257 30.7275 132.968 30.7877 132.968 29.0936V22.6183C132.968 20.751 132.553 19.1849 130.938 19.1849C129.715 19.1849 128.811 20.4273 128.811 22.4903V29.1011C128.811 30.8028 129.522 30.735 129.522 31.4202C129.522 31.6461 129.359 31.744 129.1 31.744H123.63C123.408 31.744 123.215 31.6461 123.215 31.4202L123.2 31.4051Z" fill="#292331"/>
<path d="M148.251 31.4051C148.251 30.72 148.962 30.7802 148.962 29.0861V19.8927C148.962 18.191 148.251 18.3266 148.251 17.7016C148.251 17.4757 148.414 17.3101 148.666 17.2423C149.081 17.1444 151.823 16.655 152.72 16.4894C153.558 16.3237 153.847 16.655 153.847 17.2423V18.4847C154.751 17.408 156.166 16.4593 158.382 16.4593C160.28 16.4593 161.695 17.3101 162.407 19.1774C163.244 17.8673 164.727 16.4593 167.432 16.4593C170.137 16.4593 171.938 18.2287 171.938 22.2193V29.0861C171.938 30.7877 172.649 30.72 172.649 31.4051C172.649 31.631 172.486 31.7289 172.234 31.7289H166.757C166.535 31.7289 166.342 31.631 166.342 31.4051C166.342 30.72 167.054 30.7802 167.054 29.0861V22.6108C167.054 20.7435 166.631 19.1774 165.06 19.1774C163.808 19.1774 162.903 20.4197 162.903 22.4828V29.0936C162.903 30.7953 163.615 30.7275 163.615 31.4127C163.615 31.6386 163.452 31.7364 163.192 31.7364H157.723C157.463 31.7364 157.308 31.6386 157.308 31.4127C157.308 30.7275 158.019 30.7877 158.019 29.0936V22.6183C158.019 20.751 157.604 19.1849 155.989 19.1849C154.766 19.1849 153.861 20.4273 153.861 22.4903V29.1011C153.861 30.8028 154.573 30.735 154.573 31.4202C154.573 31.6461 154.41 31.744 154.15 31.744H148.681C148.458 31.744 148.266 31.6461 148.266 31.4202L148.251 31.4051Z" fill="#292331"/>
<path d="M173.139 24.2148C173.139 19.539 176.452 16.4595 181.121 16.4595C185.79 16.4595 189.103 19.5315 189.103 24.2148C189.103 28.8981 185.79 32.0002 181.121 32.0002C176.452 32.0002 173.139 28.8905 173.139 24.2148ZM181.121 30.2007C183.055 30.2007 184.115 27.4825 184.115 24.2148C184.115 20.947 183.055 18.2289 181.121 18.2289C179.186 18.2289 178.127 20.947 178.127 24.2148C178.127 27.4825 179.223 30.2007 181.121 30.2007Z" fill="#292331"/>
<path d="M189.429 31.4051C189.429 30.72 190.14 30.7802 190.14 29.0861V19.8927C190.14 18.191 189.429 18.3266 189.429 17.7016C189.429 17.4757 189.592 17.3101 189.844 17.2423C190.229 17.1444 192.964 16.655 193.898 16.4894C194.706 16.3237 195.024 16.655 195.024 17.2423V18.6127C195.891 17.4682 197.344 16.4517 199.627 16.4517C203.14 16.4517 205 18.7407 205 22.8593V29.071C205 30.7727 205.741 30.7049 205.741 31.3901C205.741 31.616 205.549 31.7139 205.326 31.7139H199.82C199.597 31.7139 199.404 31.616 199.404 31.3901C199.404 30.7049 200.146 30.7651 200.146 29.071V22.8216C200.146 20.8263 199.597 19.1548 197.604 19.1548C195.929 19.1548 195.024 20.7586 195.024 22.9496V29.0635C195.024 30.7651 195.736 30.6974 195.736 31.3826C195.736 31.6084 195.573 31.7063 195.313 31.7063H189.844C189.584 31.7063 189.429 31.6084 189.429 31.3826V31.4051Z" fill="#292331"/>
<path d="M207.045 31.4053C207.045 30.7201 207.757 30.7803 207.757 29.0862V11.49C207.757 9.78834 207.045 9.85611 207.045 9.17093C207.045 8.94505 207.238 8.84717 207.461 8.84717H213.064C213.323 8.84717 213.486 8.94505 213.486 9.17093C213.486 9.85611 212.775 9.79587 212.775 11.49V28.3333C212.775 29.2142 213.13 29.7413 213.997 29.7413H218.696C220.727 29.7413 221.468 26.3756 222.943 26.3756C223.491 26.3756 223.714 26.7973 223.617 27.3243C223.521 27.9116 223.262 29.5455 223.039 30.7879C222.943 31.5408 222.587 31.7366 222.009 31.7366H207.453C207.231 31.7366 207.038 31.6387 207.038 31.4128L207.045 31.4053Z" fill="#292331"/>
<path d="M224.3 31.4054C224.3 30.7202 225.011 30.7804 225.011 29.0863V19.8929C225.011 18.1913 224.3 18.3268 224.3 17.7018C224.3 17.476 224.463 17.3103 224.715 17.2425C225.1 17.1447 227.835 16.6553 228.769 16.4896C229.606 16.324 229.895 16.6553 229.895 17.2425V29.0863C229.895 30.788 230.607 30.7202 230.607 31.4054C230.607 31.6313 230.444 31.7291 230.192 31.7291H224.715C224.493 31.7291 224.3 31.6313 224.3 31.4054ZM227.62 9.00537C229.228 9.00537 230.548 10.2477 230.548 11.8214C230.548 13.395 229.228 14.6374 227.62 14.6374C226.012 14.6374 224.656 13.3649 224.656 11.8214C224.656 10.2778 225.975 9.00537 227.62 9.00537Z" fill="#292331"/>
<path d="M232.059 26.7972V18.5525H231.511C231.029 18.5525 230.606 18.1309 230.606 17.6038C230.606 17.1144 231.029 16.6852 231.511 16.6852H231.926C233.601 16.6852 234.275 15.8344 235.342 13.7412C235.794 12.8603 236.921 13.056 236.921 14.1026V16.6852H239.011C239.53 16.6852 239.945 17.1069 239.945 17.6038C239.945 18.1309 239.53 18.5525 239.011 18.5525H236.921V26.3379C236.921 27.3845 237.277 28.401 238.626 28.401C239.975 28.401 240.427 27.1285 241.138 27.3845C242.265 27.8062 240.916 32 236.758 32C233.793 32 232.059 29.7789 232.059 26.7972Z" fill="#292331"/>
<path d="M81.1107 31.7366L77.7163 21.346C77.5384 20.7963 77.027 20.4274 76.4564 20.4274H67.2958C63.2195 20.4274 60.3735 21.4062 57.7795 23.7027C56.6382 24.7116 55.4968 25.9464 54.6742 26.9027C54.5778 26.8123 54.4815 26.7295 54.3851 26.6542L55.9712 24.1845C55.9712 24.1845 55.986 24.162 55.9934 24.1469C58.1872 20.2994 62.5599 17.8147 67.1254 17.8147H76.5601L76.0339 16.2034H67.1254C62.0115 16.2034 57.1051 18.9968 54.6297 23.3187L53.0733 25.7431C52.9843 25.6904 52.888 25.6377 52.7991 25.5926C53.3253 24.3954 54.0961 22.5206 54.6 20.7963C55.7636 16.7982 55.7488 13.8693 54.5556 10.6918C53.518 7.92855 52.1617 4.07349 51.0796 0.933725C50.8943 0.391607 50.3903 0.037725 49.8345 0.037725H41.6893L13.7408 0.0151367C9.73121 0.0151367 6.11443 1.79208 3.57231 5.0222C1.26736 7.92855 0 11.7836 0 15.8721C0 19.9606 1.26736 23.8156 3.57231 26.737C6.11443 29.9596 9.73121 31.7441 13.7408 31.7441H55.2374H81.1107V31.7366ZM39.3473 29.3573H27.0295C26.9109 29.3573 26.7849 29.3573 26.6663 29.3573C24.9247 29.2895 23.3905 28.77 22.049 28.0396C21.1819 27.5653 20.4037 26.9704 19.707 26.2777C17.0759 23.665 15.7048 19.697 15.7048 15.8796C15.7048 12.0622 17.0759 8.08667 19.707 5.47396C20.3963 4.78125 21.1745 4.18643 22.049 3.71208C23.3831 2.9742 24.9247 2.45467 26.6663 2.39443C26.7849 2.39443 26.9109 2.39443 27.0295 2.39443H39.3473V5.1502H28.2672C25.8214 5.1502 23.6869 5.96337 22.049 7.38643C21.0855 8.2222 20.2925 9.28384 19.707 10.5111C18.9733 12.0547 18.5656 13.8768 18.5656 15.8871C18.5656 17.6415 18.951 19.4335 19.707 21.0373C20.2777 22.257 21.0633 23.3638 22.049 24.2674C23.6202 25.7055 25.7029 26.6241 28.2672 26.6241H39.3473V29.3798V29.3573ZM28.6526 17.4533H39.3547V20.209H28.6526C26.3773 20.209 24.5986 18.3041 24.5986 15.8721C24.5986 13.4401 26.3773 11.5276 28.6526 11.5276H39.3547V14.2834H28.6526C27.8299 14.2834 27.3185 15.0438 27.3185 15.8645C27.3185 16.6853 27.8299 17.4457 28.6526 17.4457V17.4533ZM28.6526 9.91631C25.4879 9.91631 23.0125 12.529 23.0125 15.8721C23.0125 19.2151 25.4879 21.8278 28.6526 21.8278H39.3547V24.9977H28.2746C25.3545 24.9977 23.346 23.6349 22.0564 21.8278C20.7298 19.9756 20.1665 17.6641 20.1665 15.8721C20.1665 13.7187 20.7743 11.4824 22.0564 9.76573C23.3831 7.97373 25.436 6.74643 28.2746 6.74643H39.3547V9.91631H28.6526ZM49.6047 24.4782L48.0854 20.066L48.0409 19.9229L41.7486 1.62643H44.8392C46.3141 5.80525 48.2633 11.4071 49.123 14.2984C50.42 18.673 50.3014 20.4801 49.6121 24.4782H49.6047ZM51.339 24.9375C51.2723 24.9149 51.213 24.8923 51.1463 24.8773C51.8875 20.6382 52.0505 18.6053 50.6349 13.8391C49.8123 11.0457 47.9816 5.76008 46.5216 1.63396H49.6418C50.7164 4.75114 52.0431 8.5309 53.0733 11.2565C54.1479 14.1102 54.1479 16.6551 53.0807 20.3295C52.6064 21.9634 51.8504 23.7855 51.3464 24.9375H51.339ZM77.9535 26.5488L78.8947 29.3573H57.0532C60.4477 27.1511 62.4265 26.5488 66.4732 26.5488H77.9535ZM58.8246 24.9074C61.1073 22.8895 63.642 22.0311 67.2958 22.0311H76.4341L77.4124 24.93H66.4732C61.7743 24.93 59.4916 25.8034 55.897 28.1902C55.86 28.145 55.8303 28.0998 55.7859 28.0547C56.5863 27.1285 57.7128 25.8862 58.8246 24.9074Z" fill="#292331"/>
</g>
<defs>
<clipPath id="clip0_7346_2864">
<rect width="241.524" height="32" fill="white"/>
</clipPath>
</defs>
</svg>
