<svg xmlns="http://www.w3.org/2000/svg" xmlns:xlink="http://www.w3.org/1999/xlink" width="332.364" height="25.503" viewBox="0 0 332.364 25.503">
  <defs>
    <clipPath id="clip-path">
      <rect id="Rectangle_798" data-name="Rectangle 798" width="332.364" height="25.503" fill="none"/>
    </clipPath>
  </defs>
  <g id="Group_1044" data-name="Group 1044" clip-path="url(#clip-path)">
    <path id="Path_18230" data-name="Path 18230" d="M9.451,50.757c-.046-.621-.048-1.171-.048-1.279a12.856,12.856,0,0,1,2.336-7.415A11.35,11.35,0,0,0,3.13,38.112a17.062,17.062,0,0,0-3.086.4L0,38.527a12.772,12.772,0,0,0,9.451,12.23" transform="translate(0 -25.69)" fill="#22b893"/>
    <path id="Path_18231" data-name="Path 18231" d="M48.219,38.517a17.075,17.075,0,0,0-3.085-.4A11.379,11.379,0,0,0,33.766,49.479c0,.084.007.9.082,1.6a12.637,12.637,0,0,0,1.664.113A12.766,12.766,0,0,0,48.264,38.531c-.016-.006-.045-.014-.045-.014" transform="translate(-22.761 -25.691)" fill="#22b893"/>
    <path id="Path_18232" data-name="Path 18232" d="M12.974,0A12.751,12.751,0,0,0,.33,11.116a18.292,18.292,0,0,1,3.022-.352A13.015,13.015,0,0,1,12.97,15.02a13,13,0,0,1,9.624-4.257,18.291,18.291,0,0,1,3.023.352A12.75,12.75,0,0,0,12.974,0m0,10.955A3.715,3.715,0,1,1,16.689,7.24a3.715,3.715,0,0,1-3.715,3.715" transform="translate(-0.222 0)" fill="#1a234f"/>
    <path id="Path_18233" data-name="Path 18233" d="M126.331,29.243l-5.58-7.376-1.436,1.713v5.663h-3.922V10.818h3.922v8.231l6.519-8.231h4.835l-7.321,8.646,7.818,9.778Z" transform="translate(-77.784 -7.292)" fill="#1a234f"/>
    <path id="Path_18234" data-name="Path 18234" d="M181.917,29.242V21.508h-8.7v7.734h-3.922V10.817h3.922v7.237h8.7V10.817h3.95V29.242h-3.95Z" transform="translate(-114.117 -7.292)" fill="#1a234f"/>
    <path id="Path_18235" data-name="Path 18235" d="M239.895,29.243l-1.132-3.122h-7.9L229.7,29.243h-4.475l7.127-18.425h4.917l7.1,18.425Zm-5.082-14.5-2.873,7.928h5.746Z" transform="translate(-151.821 -7.292)" fill="#1a234f"/>
    <path id="Path_18236" data-name="Path 18236" d="M301.92,29.243l-8.784-12.016V29.243h-3.923V10.818h4.034l8.535,11.574V10.818H305.7V29.243Z" transform="translate(-194.952 -7.292)" fill="#1a234f"/>
    <path id="Path_18237" data-name="Path 18237" d="M384.312,29.243l-4.06-14.861-4.06,14.861H373.7l-5.248-18.425H371l4.088,15.358,4.227-15.358h1.906l4.227,15.358,4.06-15.358h2.541L386.8,29.243Z" transform="translate(-248.369 -7.292)" fill="#1a234f"/>
    <path id="Path_18238" data-name="Path 18238" d="M446.426,19.414c0-5.442,3.674-9.53,9.144-9.53,5.442,0,9.144,4.088,9.144,9.53s-3.7,9.53-9.144,9.53c-5.47,0-9.144-4.088-9.144-9.53m15.911,0c0-4.309-2.651-7.485-6.767-7.485-4.143,0-6.767,3.177-6.767,7.485,0,4.282,2.624,7.486,6.767,7.486,4.116,0,6.767-3.2,6.767-7.486" transform="translate(-300.926 -6.663)" fill="#1a234f"/>
    <path id="Path_18239" data-name="Path 18239" d="M524.215,29.243l-4.7-7.32h-3.673v7.32h-2.294V10.818h7.4c3.37,0,5.774,2.154,5.774,5.552a5.091,5.091,0,0,1-4.779,5.358l4.972,7.514h-2.707Zm.138-12.873a3.425,3.425,0,0,0-3.673-3.508h-4.833v7.044h4.833a3.446,3.446,0,0,0,3.673-3.536" transform="translate(-346.174 -7.292)" fill="#1a234f"/>
    <path id="Path_18240" data-name="Path 18240" d="M565.079,29.243V10.818h2.292V27.2h8.563v2.045Z" transform="translate(-380.908 -7.292)" fill="#1a234f"/>
    <path id="Path_18241" data-name="Path 18241" d="M608.3,29.243V10.818h6.3c5.718,0,9.446,4.005,9.446,9.226,0,5.249-3.728,9.2-9.446,9.2h-6.3Zm13.37-9.2c0-3.977-2.514-7.182-7.071-7.182h-4.006V27.2H614.6c4.475,0,7.071-3.2,7.071-7.154" transform="translate(-410.043 -7.292)" fill="#1a234f"/>
    <path id="Path_18242" data-name="Path 18242" d="M686.1,26.074l1.354-1.74a7.787,7.787,0,0,0,5.8,2.624c3.288,0,4.338-1.768,4.338-3.177,0-4.751-10.911-2.126-10.911-8.7,0-3.039,2.707-5.11,6.325-5.11a8.663,8.663,0,0,1,6.547,2.569l-1.382,1.685a7.049,7.049,0,0,0-5.331-2.209c-2.209,0-3.784,1.188-3.784,2.928,0,4.143,10.912,1.768,10.912,8.646,0,2.679-1.824,5.414-6.8,5.414a9.122,9.122,0,0,1-7.071-2.927" transform="translate(-462.488 -6.721)" fill="#1a234f"/>
    <path id="Path_18243" data-name="Path 18243" d="M736.869,19.414a9.216,9.216,0,0,1,9.474-9.53,8.241,8.241,0,0,1,6.989,3.647L751.4,14.608a6.216,6.216,0,0,0-5.055-2.68c-4.033,0-7.1,3.094-7.1,7.485,0,4.365,3.067,7.486,7.1,7.486a6.147,6.147,0,0,0,5.055-2.679L753.36,25.3a8.338,8.338,0,0,1-7.017,3.646,9.216,9.216,0,0,1-9.474-9.53" transform="translate(-496.708 -6.663)" fill="#1a234f"/>
    <path id="Path_18244" data-name="Path 18244" d="M809.516,29.243V20.79H798.743v8.453H796.45V10.818h2.293v7.927h10.773V10.818h2.293V29.243Z" transform="translate(-536.87 -7.292)" fill="#1a234f"/>
    <path id="Path_18245" data-name="Path 18245" d="M854.5,19.414c0-5.442,3.674-9.53,9.144-9.53,5.442,0,9.143,4.088,9.143,9.53s-3.7,9.53-9.143,9.53c-5.47,0-9.144-4.088-9.144-9.53m15.911,0c0-4.309-2.651-7.485-6.767-7.485-4.143,0-6.767,3.177-6.767,7.485,0,4.282,2.625,7.486,6.767,7.486,4.116,0,6.767-3.2,6.767-7.486" transform="translate(-576.002 -6.663)" fill="#1a234f"/>
    <path id="Path_18246" data-name="Path 18246" d="M919.337,19.414c0-5.442,3.673-9.53,9.143-9.53,5.442,0,9.143,4.088,9.143,9.53s-3.7,9.53-9.143,9.53c-5.47,0-9.143-4.088-9.143-9.53m15.911,0c0-4.309-2.651-7.485-6.767-7.485-4.143,0-6.768,3.177-6.768,7.485,0,4.282,2.625,7.486,6.768,7.486,4.116,0,6.767-3.2,6.767-7.486" transform="translate(-619.706 -6.663)" fill="#1a234f"/>
    <path id="Path_18247" data-name="Path 18247" d="M986.461,29.243V10.818h2.293V27.2h8.563v2.045Z" transform="translate(-664.952 -7.292)" fill="#1a234f"/>
  </g>
</svg>
