<svg width="96" height="47" viewBox="0 0 96 47" fill="none" xmlns="http://www.w3.org/2000/svg">
<path fill-rule="evenodd" clip-rule="evenodd" d="M21.0623 37.3971C20.8157 37.5144 20.7165 37.703 20.7165 37.9604V43.2112C20.7165 43.4686 20.8157 43.6337 21.0623 43.7745L25.7481 46.2982C25.8555 46.3488 25.9739 46.3751 26.0939 46.3751C26.2139 46.3751 26.3323 46.3488 26.4397 46.2982L31.1256 43.7745C31.3737 43.6337 31.4714 43.4686 31.4714 43.2112V37.9604C31.4714 37.656 31.3216 37.491 31.1256 37.3971L26.4397 34.8734C26.3323 34.8228 26.2139 34.7965 26.0939 34.7965C25.9739 34.7965 25.8555 34.8228 25.7481 34.8734L21.0623 37.3971ZM30.2077 39.485C27.984 39.4959 26.1837 41.2616 26.1837 43.4395V43.5318H26.0108V43.4395C26.0108 41.2616 24.2073 39.4959 21.9794 39.485C21.9645 39.6232 21.957 39.7621 21.9571 39.9011C21.9571 41.6042 23.0599 43.0562 24.6044 43.6132C25.0808 43.7812 25.5852 43.8668 26.0936 43.8659C26.6018 43.8655 27.106 43.7799 27.5827 43.6132C29.1265 43.0562 30.2301 41.6042 30.2301 39.9011C30.2301 39.7621 30.2227 39.6232 30.2077 39.485ZM27.0297 37.6016C27.5466 38.0904 27.5466 38.883 27.0297 39.3718C26.5128 39.8606 25.6747 39.8606 25.1577 39.3718C24.6408 38.883 24.6408 38.0904 25.1577 37.6016C25.6747 37.1128 26.5128 37.1128 27.0297 37.6016Z" fill="#5F1E5C"/>
<path d="M34.4549 37.4747C34.4545 37.4447 34.4604 37.4148 34.4725 37.387C34.4846 37.3591 34.5025 37.3339 34.5251 37.3128C34.5478 37.2917 34.5747 37.2751 34.6043 37.2641C34.6339 37.253 34.6655 37.2478 34.6973 37.2486H35.5726C35.6358 37.2493 35.6963 37.2733 35.741 37.3155C35.7857 37.3578 35.8111 37.415 35.8117 37.4747V40.0149L38.3184 37.3425C38.3401 37.314 38.3685 37.2907 38.4014 37.2744C38.4343 37.2581 38.4708 37.2493 38.5079 37.2486H39.5006C39.5428 37.2472 39.5844 37.2577 39.6202 37.2788C39.656 37.2998 39.6843 37.3305 39.7015 37.3669C39.7188 37.4033 39.7241 37.4437 39.7169 37.483C39.7097 37.5223 39.6903 37.5586 39.6611 37.5874L37.0617 40.3536L39.8473 43.5048C39.8715 43.5357 39.8861 43.5724 39.8894 43.6108C39.8927 43.6492 39.8846 43.6876 39.866 43.7219C39.8474 43.7561 39.8191 43.7848 39.7842 43.8046C39.7493 43.8244 39.7093 43.8347 39.6686 43.8341H38.5856C38.5525 43.837 38.5191 43.8325 38.4881 43.8211C38.4571 43.8097 38.4293 43.7917 38.4069 43.7684L35.8084 40.7393V43.608C35.8077 43.6678 35.7823 43.725 35.7376 43.7672C35.6929 43.8095 35.6325 43.8335 35.5693 43.8341H34.6973C34.6658 43.8345 34.6345 43.829 34.6053 43.8178C34.5761 43.8066 34.5496 43.7899 34.5273 43.7688C34.505 43.7478 34.4874 43.7227 34.4755 43.695C34.4637 43.6674 34.4578 43.6378 34.4582 43.608L34.4549 37.4747Z" fill="#5F1E5C"/>
<path d="M40.571 37.4558C40.5747 37.402 40.599 37.3513 40.6393 37.3131C40.6796 37.275 40.7333 37.252 40.7902 37.2485H41.596C41.6534 37.2507 41.7077 37.2732 41.7482 37.3116C41.7887 37.3501 41.8124 37.4016 41.8144 37.4558V39.7605C42.0436 39.572 42.4415 39.3936 42.9884 39.3936C44.451 39.3936 44.849 40.3535 44.849 41.4448V43.6275C44.8469 43.6818 44.8231 43.7334 44.7825 43.7719C44.7418 43.8104 44.6872 43.8328 44.6297 43.8348H43.8239C43.7661 43.8342 43.7108 43.8121 43.6699 43.7733C43.6291 43.7346 43.606 43.6822 43.6055 43.6275V41.437C43.6055 40.8354 43.3168 40.4685 42.77 40.4685C42.2231 40.4685 41.9336 40.7885 41.8144 41.2305V43.6275C41.8144 43.7503 41.7549 43.8348 41.5762 43.8348H40.7902C40.7327 43.8328 40.6782 43.8104 40.6375 43.7719C40.5968 43.7334 40.573 43.6818 40.571 43.6275V37.4558Z" fill="#5F1E5C"/>
<path d="M47.3785 41.0871C47.6785 41.0903 47.9768 41.1314 48.2653 41.2091C48.2852 40.6537 48.1164 40.3908 47.6291 40.3908C47.193 40.3966 46.7589 40.4491 46.3352 40.5473C46.1863 40.5942 46.097 40.491 46.0771 40.3595L45.9762 39.8722C45.9655 39.8457 45.9609 39.8175 45.9628 39.7892C45.9647 39.761 45.973 39.7335 45.9871 39.7085C46.0012 39.6836 46.0209 39.6618 46.0447 39.6447C46.0685 39.6276 46.0959 39.6155 46.1251 39.6093C46.636 39.4689 47.165 39.3959 47.697 39.3926C49.1299 39.3926 49.4277 40.0967 49.4277 41.2834V43.6272C49.4273 43.682 49.4041 43.7343 49.3633 43.7731C49.3224 43.8119 49.2671 43.8339 49.2093 43.8345H48.8709C48.7882 43.8345 48.7319 43.8064 48.6715 43.6843L48.5425 43.3925C48.3523 43.5696 48.1268 43.7092 47.8792 43.8032C47.6315 43.8972 47.3665 43.9438 47.0997 43.9402C46.1847 43.9402 45.5476 43.3855 45.5476 42.4538C45.5476 41.6793 46.2145 41.0871 47.3785 41.0871ZM47.4082 43.0624C47.8161 43.0624 48.1743 42.7612 48.2355 42.6016V41.9617C48.0207 41.8769 47.7908 41.8315 47.558 41.8279C47.0302 41.8279 46.7414 42.0626 46.7414 42.4483C46.7414 42.8175 46.9805 43.0624 47.4082 43.0624Z" fill="#5F1E5C"/>
<path d="M50.463 39.6944C50.4632 39.6396 50.4862 39.5871 50.5271 39.5483C50.568 39.5095 50.6234 39.4875 50.6814 39.4871H51.0594C51.1027 39.4832 51.146 39.4945 51.1809 39.5189C51.2159 39.5433 51.2401 39.5791 51.2489 39.6193L51.4144 40.0238C51.5948 39.819 51.8223 39.6557 52.0795 39.5465C52.3366 39.4372 52.6167 39.3848 52.8985 39.3932C54.3612 39.3932 54.7393 40.3242 54.7393 41.3779V43.6271C54.737 43.6814 54.7132 43.7329 54.6726 43.7713C54.6319 43.8097 54.5775 43.8323 54.52 43.8344H53.7142C53.6564 43.8338 53.6011 43.8117 53.5602 43.7729C53.5194 43.7342 53.4963 43.6818 53.4958 43.6271V41.3779C53.4958 40.8139 53.2568 40.4658 52.7 40.4658C52.479 40.4606 52.2622 40.5241 52.0829 40.6464C51.9037 40.7688 51.7717 40.9433 51.7072 41.1432V43.6271C51.7072 43.7874 51.6377 43.8344 51.4185 43.8344H50.6822C50.6248 43.8323 50.5705 43.8097 50.53 43.7713C50.4895 43.7328 50.4658 43.6813 50.4638 43.6271L50.463 39.6944Z" fill="#5F1E5C"/>
<path d="M57.0913 43.5889L60.1854 37.2577C60.1991 37.227 60.2222 37.2008 60.2516 37.1824C60.281 37.164 60.3156 37.1543 60.3509 37.1545H60.451C60.4866 37.1525 60.522 37.1615 60.5519 37.1801C60.5817 37.1987 60.6043 37.2259 60.6164 37.2577L63.6774 43.5889C63.6925 43.615 63.6998 43.6444 63.6987 43.6741C63.6976 43.7038 63.6881 43.7326 63.6712 43.7576C63.6543 43.7826 63.6306 43.8029 63.6026 43.8163C63.5746 43.8297 63.5433 43.8357 63.512 43.8338H62.6524C62.5035 43.8338 62.434 43.7775 62.3645 43.6453L61.8764 42.6283H58.9023L58.415 43.6453C58.3938 43.7014 58.3546 43.7497 58.3028 43.7836C58.251 43.8174 58.1892 43.835 58.1263 43.8338H57.2609C57.2293 43.8362 57.1976 43.8306 57.1692 43.8174C57.1407 43.8043 57.1165 43.7841 57.0992 43.759C57.0818 43.734 57.0719 43.7049 57.0705 43.675C57.0691 43.6451 57.0763 43.6153 57.0913 43.5889ZM61.3891 41.5855L60.3964 39.5155H60.3666L59.3895 41.5855H61.3891Z" fill="#5F1E5C"/>
<path d="M66.248 39.3936C66.9645 39.3936 67.5212 39.6854 67.9589 40.1274C68.0582 40.2213 68.0085 40.3441 67.9092 40.4403L67.4915 40.8729C67.3922 40.9762 67.283 40.9293 67.1928 40.8448C66.9744 40.6469 66.7055 40.4685 66.2778 40.4685C65.5614 40.4685 65.0642 40.995 65.0642 41.6631C65.0642 42.3312 65.5514 42.867 66.2679 42.867C66.775 42.867 67.0439 42.6042 67.2424 42.3875C67.2783 42.3497 67.3277 42.3259 67.3811 42.3207C67.4344 42.3155 67.488 42.3293 67.5312 42.3593L67.9787 42.7168C68.0888 42.8107 68.1384 42.914 68.0615 43.0298C67.6735 43.6032 67.0571 43.9419 66.2414 43.9419C64.8979 43.9419 63.8141 42.9734 63.8141 41.6654C63.8108 40.3816 64.8846 39.3936 66.248 39.3936Z" fill="#5F1E5C"/>
<path d="M70.5047 41.0871C70.8041 41.0905 71.1018 41.1315 71.3899 41.2091C71.4097 40.6537 71.2409 40.3908 70.7537 40.3908C70.3175 40.3966 69.8834 40.4491 69.4598 40.5473C69.3109 40.5942 69.2215 40.491 69.2017 40.3595L69.1015 39.8722C69.091 39.8457 69.0866 39.8174 69.0886 39.7891C69.0906 39.7609 69.0989 39.7334 69.1131 39.7085C69.1273 39.6836 69.147 39.6618 69.1708 39.6447C69.1947 39.6276 69.2221 39.6155 69.2513 39.6093C69.7622 39.4689 70.2911 39.3959 70.8232 39.3926C72.256 39.3926 72.5539 40.0967 72.5539 41.2834V43.6272C72.5534 43.682 72.5303 43.7343 72.4895 43.7731C72.4486 43.8119 72.3933 43.8339 72.3355 43.8345H71.9971C71.9144 43.8345 71.8573 43.8064 71.7977 43.6843L71.6687 43.3925C71.4785 43.5696 71.253 43.7092 71.0053 43.8032C70.7577 43.8972 70.4927 43.9438 70.2259 43.9402C69.3109 43.9402 68.6738 43.3855 68.6738 42.4538C68.6738 41.6793 69.3406 41.0871 70.5047 41.0871ZM70.5344 43.0624C70.9423 43.0624 71.3005 42.7612 71.3617 42.6016V41.9617C71.1471 41.877 70.9175 41.8316 70.685 41.8279C70.158 41.8279 69.8693 42.0626 69.8693 42.4483C69.8676 42.8175 70.1059 43.0624 70.5344 43.0624Z" fill="#5F1E5C"/>
<path d="M75.6123 39.3934C75.9883 39.3952 76.3614 39.4554 76.7167 39.5718V37.4596C76.7204 37.4057 76.7447 37.355 76.785 37.3169C76.8254 37.2787 76.879 37.2557 76.9359 37.2523H77.7417C77.7991 37.2544 77.8534 37.2769 77.8939 37.3154C77.9344 37.3538 77.9581 37.4053 77.9601 37.4596V43.6273C77.9597 43.682 77.9366 43.7344 77.8957 43.7731C77.8549 43.8119 77.7996 43.834 77.7417 43.8346H77.3736C77.2635 43.8346 77.1941 43.7501 77.1543 43.6273L77.0352 43.2885C76.849 43.4928 76.6184 43.6568 76.3591 43.7692C76.0999 43.8817 75.8181 43.94 75.5328 43.9402C74.2795 43.9402 73.3322 42.978 73.3322 41.6606C73.3322 40.3909 74.2422 39.3934 75.6123 39.3934ZM76.7167 40.7108C76.4285 40.5474 76.098 40.4627 75.762 40.466C75.0058 40.466 74.6178 41.0488 74.6178 41.6606C74.6178 42.2723 74.986 42.8645 75.7016 42.8645C76.2989 42.8645 76.6174 42.507 76.7167 42.2629V40.7108Z" fill="#5F1E5C"/>
<path d="M81.0742 39.3936C82.268 39.3936 83.183 40.2307 83.183 41.4065C83.183 41.473 83.1731 41.6232 83.1632 41.6889C83.1574 41.741 83.1323 41.7894 83.0923 41.8257C83.0523 41.8619 83.0001 41.8836 82.9448 41.8868H79.9996C80.0095 42.4227 80.4769 42.8929 81.1437 42.8929C81.5016 42.8989 81.8503 42.786 82.1291 42.5737C82.2383 42.4884 82.3574 42.479 82.4269 42.5737L82.8149 43.0626C82.8359 43.0811 82.8523 43.1037 82.8629 43.1289C82.8735 43.1541 82.878 43.1812 82.8761 43.2083C82.8742 43.2354 82.8659 43.2617 82.8519 43.2853C82.8379 43.309 82.8184 43.3294 82.795 43.345C82.3195 43.7324 81.7118 43.9439 81.0842 43.9404C79.7109 43.9404 78.7561 42.9054 78.7561 41.6639C78.7561 40.438 79.7108 39.3936 81.0742 39.3936ZM81.9297 41.1147C81.9098 40.6907 81.5516 40.3621 81.0445 40.3621C80.4869 40.3621 80.1295 40.6813 80.0691 41.1147H81.9297Z" fill="#5F1E5C"/>
<path d="M83.9216 39.6948C83.9218 39.64 83.9448 39.5875 83.9857 39.5487C84.0266 39.5099 84.0821 39.4879 84.14 39.4875H84.4982C84.54 39.4835 84.582 39.4936 84.6167 39.5161C84.6514 39.5386 84.6765 39.572 84.6877 39.6103L84.8531 40.0242C85.0201 39.8235 85.234 39.6621 85.478 39.5527C85.722 39.4433 85.9895 39.3889 86.2595 39.3936C86.9263 39.3936 87.2523 39.6197 87.632 40.0523C87.8314 39.8544 88.2889 39.3936 89.1145 39.3936C90.5871 39.3936 90.9346 40.2776 90.9346 41.4065V43.6275C90.9341 43.6554 90.9277 43.6829 90.9159 43.7084C90.904 43.7339 90.887 43.757 90.8657 43.7763C90.8444 43.7955 90.8193 43.8106 90.7917 43.8207C90.7642 43.8307 90.7349 43.8355 90.7054 43.8348H89.9096C89.8517 43.8342 89.7964 43.8121 89.7556 43.7733C89.7147 43.7346 89.6916 43.6822 89.6912 43.6275V41.3783C89.6912 40.8143 89.4719 40.4662 88.8953 40.4662C88.2285 40.4662 88.0391 40.9176 88.0391 40.9176C88.0391 40.9176 88.0589 41.1343 88.0589 41.3314V43.6275C88.0569 43.6817 88.0332 43.7332 87.9927 43.7717C87.9522 43.8101 87.8978 43.8327 87.8405 43.8348H87.0248C86.9958 43.8354 86.967 43.8305 86.9401 43.8203C86.9132 43.8101 86.8887 43.7949 86.8682 43.7755C86.8478 43.7561 86.8316 43.733 86.8208 43.7076C86.8101 43.6821 86.8049 43.6549 86.8055 43.6275V41.3783C86.8055 40.8143 86.6401 40.4662 86.0494 40.4662C85.4827 40.4662 85.2734 40.8425 85.1642 41.1437V43.6275C85.1621 43.6817 85.1385 43.7332 85.098 43.7717C85.0575 43.8101 85.0031 43.8327 84.9458 43.8348H84.1392C84.082 43.8325 84.0278 43.8098 83.9875 43.7714C83.9471 43.733 83.9236 43.6816 83.9216 43.6275V39.6948Z" fill="#5F1E5C"/>
<path d="M91.4106 39.7697C91.351 39.6195 91.4304 39.4873 91.6091 39.4873H92.5647C92.6064 39.4835 92.6482 39.4937 92.6827 39.5162C92.7172 39.5387 92.7422 39.5719 92.7533 39.6101L93.5806 42.2066H93.6013L94.6437 39.6101C94.7132 39.4967 94.7926 39.4873 94.9324 39.4873H95.7779C95.8147 39.4835 95.8519 39.4893 95.8854 39.5041C95.919 39.519 95.9476 39.5422 95.9681 39.5714C95.9886 39.6005 96.0002 39.6345 96.0017 39.6694C96.0032 39.7044 95.9944 39.7391 95.9764 39.7697L93.2703 45.9414C93.253 45.9784 93.2253 46.0103 93.1901 46.0335C93.155 46.0566 93.1137 46.0702 93.071 46.0728H92.1171C92.0794 46.0759 92.0416 46.0693 92.0076 46.0536C91.9736 46.038 91.9448 46.0138 91.9243 45.9838C91.9038 45.9537 91.8923 45.919 91.8912 45.8832C91.89 45.8475 91.8992 45.8122 91.9177 45.781L92.8426 43.5796L91.4106 39.7697Z" fill="#5F1E5C"/>
<path d="M7.78155 42.5505C7.89672 42.6989 8.02213 42.8039 8.15778 42.8653C8.29599 42.9241 8.44571 42.9536 8.60695 42.9536C8.93199 42.9536 9.18537 42.8359 9.36709 42.6004C9.5488 42.3649 9.63966 42.0002 9.63966 41.5063C9.63966 41.0558 9.56032 40.7269 9.40164 40.5196C9.24552 40.3123 9.02157 40.2086 8.7298 40.2086C8.52761 40.2086 8.35101 40.2547 8.20001 40.3469C8.05157 40.4364 7.91208 40.5657 7.78155 40.7346V42.5505ZM7.78155 40.1357C7.94279 39.9591 8.12323 39.8183 8.32286 39.7134C8.52249 39.6085 8.75028 39.556 9.00622 39.556C9.234 39.556 9.43875 39.6008 9.62047 39.6904C9.80474 39.7774 9.96086 39.9041 10.0888 40.0704C10.2168 40.2368 10.3153 40.439 10.3844 40.677C10.4535 40.9125 10.4881 41.1787 10.4881 41.4755C10.4881 41.7929 10.4484 42.0821 10.3691 42.3432C10.2923 42.6017 10.181 42.8243 10.0351 43.0112C9.8892 43.1954 9.7126 43.3388 9.50529 43.4411C9.29799 43.541 9.06636 43.5909 8.81042 43.5909C8.68501 43.5909 8.57112 43.5781 8.46875 43.5525C8.36637 43.5294 8.27167 43.4949 8.18465 43.4488C8.09764 43.4028 8.01701 43.3477 7.94279 43.2837C7.87113 43.2198 7.80203 43.1468 7.73548 43.0649L7.70093 43.3682C7.68813 43.4271 7.6651 43.4693 7.63183 43.4949C7.59856 43.5205 7.55249 43.5333 7.49362 43.5333H6.95615V37.8515H7.78155V40.1357Z" fill="#5F1E5C"/>
<path d="M14.6595 39.6174L12.5019 44.6466C12.4738 44.7055 12.4392 44.7515 12.3983 44.7848C12.3599 44.8181 12.2997 44.8347 12.2178 44.8347H11.6074L12.3292 43.2684L10.7321 39.6174H11.45C11.5191 39.6174 11.5716 39.6341 11.6074 39.6673C11.6458 39.698 11.674 39.7352 11.6919 39.7787L12.6248 42.0015C12.6478 42.0655 12.6683 42.1295 12.6862 42.1934C12.7067 42.2549 12.7259 42.3189 12.7438 42.3854C12.7643 42.3189 12.7847 42.2536 12.8052 42.1896C12.8257 42.1256 12.8487 42.0616 12.8743 41.9977L13.7688 39.7787C13.7867 39.7326 13.8162 39.6942 13.8571 39.6635C13.9006 39.6328 13.948 39.6174 13.9992 39.6174H14.6595Z" fill="#5F1E5C"/>
<path d="M15.0277 19.2848C15.0624 19.2878 15.0815 19.2722 15.0848 19.2377C15.0882 19.2033 15.0725 19.1846 15.0378 19.1815C15.0032 19.1785 14.9841 19.1941 14.9808 19.2286C14.9774 19.263 14.9931 19.2817 15.0277 19.2848Z" fill="#5F1E5C"/>
<path d="M11.2849 11.1431C11.2899 11.0915 11.2751 11.0641 11.2404 11.0611C11.1884 11.0565 11.1598 11.08 11.1548 11.1316C11.1514 11.166 11.1758 11.1856 11.2278 11.1901C11.2625 11.1932 11.2815 11.1775 11.2849 11.1431Z" fill="#5F1E5C"/>
<path d="M84.5202 14.0184C84.7814 13.8283 84.912 13.7937 84.912 13.9147C84.912 13.9666 84.9817 14.0271 85.1211 14.0962C85.3475 14.1826 85.5565 14.3123 85.7481 14.4851C85.9571 14.6407 86.0616 14.779 86.0616 14.9C86.0616 15.0037 86.1051 15.0815 86.1922 15.1333C86.2444 15.1506 86.2619 15.237 86.2444 15.3926C86.2444 15.5482 86.2619 15.626 86.2967 15.626C86.3664 15.626 86.4012 15.6865 86.4012 15.8075C86.4012 15.9112 86.3577 15.963 86.2706 15.963C86.2183 15.963 86.1922 16.0235 86.1922 16.1445V16.3519C86.2096 16.4557 86.2183 16.5334 86.2183 16.5853C86.2183 16.6717 86.2009 16.7149 86.1661 16.7149C86.1138 16.7149 86.079 16.7236 86.0616 16.7409V16.8186C86.0616 16.8705 86.0441 16.9137 86.0093 16.9483C85.9919 16.9656 85.9658 16.9656 85.9309 16.9483C85.809 16.9483 85.6784 17.1039 85.5391 17.415C85.5391 17.4323 85.4084 17.4582 85.1472 17.4928C84.9033 17.5273 84.7379 17.5878 84.6508 17.6743C84.5811 17.7088 84.5202 17.7261 84.4679 17.7261C84.2066 17.7261 83.928 17.4928 83.6319 17.0261C83.4055 16.6804 83.3532 16.4729 83.4751 16.4038C83.5796 16.3347 83.6232 16.1877 83.6058 15.963C83.5709 15.7383 83.5883 15.626 83.658 15.626C83.6928 15.6087 83.7016 15.5655 83.6841 15.4963C83.6841 15.4099 83.6667 15.3148 83.6319 15.2111C83.6145 15.1074 83.6145 15.0469 83.6319 15.0296C83.6841 14.9778 83.7277 14.7963 83.7625 14.4851C83.7625 14.4333 83.8235 14.4246 83.9454 14.4592C83.9976 14.4765 84.0412 14.4678 84.076 14.4333C84.1109 14.3814 84.137 14.3296 84.1544 14.2777C84.1718 14.2259 84.1979 14.1826 84.2328 14.1481C84.2676 14.0962 84.3024 14.0789 84.3373 14.0962C84.3547 14.1135 84.4156 14.0876 84.5202 14.0184Z" fill="#5F1E5C"/>
<path d="M83.8409 12.3072C83.7886 12.3245 83.7451 12.3245 83.7103 12.3072C83.6928 12.2553 83.719 12.2294 83.7886 12.2294C83.8235 12.2294 83.8496 12.238 83.867 12.2553C83.9018 12.2726 83.8931 12.2899 83.8409 12.3072Z" fill="#5F1E5C"/>
<path d="M66.7176 19.7615C66.7525 19.7615 66.7699 19.7442 66.7699 19.7096C66.7699 19.675 66.7525 19.6578 66.7176 19.6578C66.6828 19.6578 66.6654 19.675 66.6654 19.7096C66.6654 19.7442 66.6828 19.7615 66.7176 19.7615Z" fill="#5F1E5C"/>
<path d="M65.5681 13.6425C65.603 13.6425 65.6204 13.6252 65.6204 13.5906C65.6204 13.5561 65.603 13.5388 65.5681 13.5388C65.5333 13.5388 65.5159 13.5561 65.5159 13.5906C65.5159 13.6252 65.5333 13.6425 65.5681 13.6425Z" fill="#5F1E5C"/>
<path d="M55.6982 18.1629C55.7328 18.1593 55.7531 18.1833 55.759 18.2348C55.763 18.2692 55.7476 18.2882 55.713 18.2918C55.6784 18.2954 55.6591 18.28 55.6551 18.2456C55.6492 18.1941 55.6635 18.1665 55.6982 18.1629Z" fill="#5F1E5C"/>
<path d="M51.6667 17.6163C51.6707 17.6507 51.6554 17.6697 51.6207 17.6732C51.5861 17.6768 51.5668 17.6615 51.5628 17.6271C51.5589 17.5927 51.5742 17.5737 51.6089 17.5701C51.6435 17.5666 51.6628 17.5819 51.6667 17.6163Z" fill="#5F1E5C"/>
<path d="M53.3562 13.346C53.3601 13.3804 53.3448 13.3993 53.3102 13.4029C53.2755 13.4065 53.2563 13.3911 53.2523 13.3568C53.2483 13.3224 53.2637 13.3034 53.2983 13.2998C53.3329 13.2962 53.3522 13.3116 53.3562 13.346Z" fill="#5F1E5C"/>
<path d="M44.4986 19.2777C44.4927 19.2261 44.4724 19.2022 44.4378 19.2057C44.4032 19.2093 44.3888 19.2369 44.3948 19.2885C44.3987 19.3228 44.418 19.3382 44.4526 19.3346C44.4873 19.331 44.5026 19.312 44.4986 19.2777Z" fill="#5F1E5C"/>
<path d="M46.9158 14.9321C46.9524 14.9457 46.9957 14.9412 47.0456 14.9187C47.0956 14.8961 47.1023 14.878 47.0657 14.8644C47.0464 14.849 47.0194 14.8431 46.9848 14.8467C46.9155 14.8539 46.8925 14.8824 46.9158 14.9321Z" fill="#5F1E5C"/>
<path d="M41.9198 14.2243C41.9544 14.2207 41.9697 14.2018 41.9658 14.1674C41.9618 14.133 41.9425 14.1176 41.9079 14.1212C41.8733 14.1248 41.8579 14.1438 41.8619 14.1782C41.8659 14.2125 41.8851 14.2279 41.9198 14.2243Z" fill="#5F1E5C"/>
<path d="M32.961 16.2939C32.9959 16.2939 33.0133 16.3198 33.0133 16.3717C33.0133 16.4063 32.9959 16.4236 32.961 16.4236C32.9262 16.4236 32.9088 16.4063 32.9088 16.3717C32.9088 16.3198 32.9262 16.2939 32.961 16.2939Z" fill="#5F1E5C"/>
<path d="M34.5808 14.9457C34.6853 14.9457 34.7376 15.0321 34.7376 15.2049C34.7376 15.4124 34.694 15.5334 34.607 15.5679C34.5373 15.6025 34.5024 15.6889 34.5024 15.8272C34.5024 15.9309 34.4502 16.026 34.3457 16.1124C34.2412 16.1988 34.128 16.2421 34.0061 16.2421C33.9538 16.2421 33.9103 16.2334 33.8754 16.2161C33.7884 16.1989 33.7013 16.2248 33.6142 16.2939C33.5271 16.3631 33.4226 16.3544 33.3007 16.268C33.2136 16.2161 33.17 16.1643 33.17 16.1124C33.17 16.0606 33.3529 15.8618 33.7187 15.5161C34.1193 15.1358 34.4067 14.9457 34.5808 14.9457Z" fill="#5F1E5C"/>
<path d="M20.8804 12.4753C20.9151 12.4724 20.9309 12.4537 20.9277 12.4193C20.9245 12.3848 20.9056 12.3691 20.8709 12.372C20.8362 12.3748 20.8204 12.3935 20.8236 12.428C20.8268 12.4624 20.8457 12.4782 20.8804 12.4753Z" fill="#5F1E5C"/>
<path d="M20.7806 11.963C20.7774 11.9286 20.7584 11.9128 20.7237 11.9157C20.689 11.9186 20.6733 11.9373 20.6765 11.9717C20.6812 12.0234 20.701 12.0478 20.7357 12.0449C20.7704 12.042 20.7853 12.0147 20.7806 11.963Z" fill="#5F1E5C"/>
<path d="M72.0174 16.2124C72.0697 16.2124 72.0958 16.2383 72.0958 16.2902C72.0958 16.3247 72.0697 16.342 72.0174 16.342C71.9826 16.342 71.9651 16.3247 71.9651 16.2902C71.9651 16.2383 71.9826 16.2124 72.0174 16.2124Z" fill="#5F1E5C"/>
<path d="M75.9624 14.916C76.0669 15.037 76.0669 15.0975 75.9624 15.0975C75.8927 15.0975 75.8579 15.0543 75.8579 14.9678C75.8579 14.8987 75.8666 14.8641 75.884 14.8641L75.9624 14.916Z" fill="#5F1E5C"/>
<path fill-rule="evenodd" clip-rule="evenodd" d="M0.807178 27.7254L0.00224616 4.03044C-0.0562885 2.30734 1.35475 0.889223 3.07849 0.93876L91.7803 3.48787C93.3661 3.53344 94.6348 4.8123 94.6674 6.39815L95.1351 29.093L95.2705 32.3278C95.3259 33.6523 93.7542 34.39 92.7748 33.4993L88.5786 29.6828C88.2991 29.4285 87.933 29.2904 87.5546 29.2962L3.8253 30.5968C2.20308 30.622 0.862242 29.3464 0.807178 27.7254ZM13.359 15.1537C13.2723 15.146 13.1805 15.19 13.0837 15.2857C13.0042 15.3828 12.9211 15.4276 12.8344 15.4199C12.5239 15.3752 12.3732 15.3966 12.3821 15.4842C12.4481 15.5248 12.424 15.5921 12.3099 15.6862C12.2321 15.7661 12.2063 15.8506 12.2326 15.9397C12.2762 16.0304 12.35 16.0803 12.4541 16.0895C12.5061 16.0941 12.5749 16.1956 12.6604 16.3941C12.765 16.5769 12.8528 16.6628 12.9239 16.6517C12.9793 16.6218 13.0601 16.6897 13.1663 16.8553C13.2916 17.0052 13.3802 17.0825 13.4323 17.0871C13.5346 17.1134 13.5564 17.1588 13.4977 17.223C13.4563 17.2888 13.4314 17.3647 13.4229 17.4508C13.4335 17.5212 13.5004 17.5531 13.6235 17.5466C13.7829 17.5259 13.9627 17.6546 14.1629 17.9326C14.2569 18.0451 14.336 18.1302 14.4004 18.1879C14.482 18.2472 14.5324 18.269 14.5514 18.2533L14.5984 18.3095L14.5883 18.4128C14.5748 18.5505 14.6402 18.6864 14.7845 18.8207C14.9792 18.9767 15.1626 19.1578 15.3349 19.3639C15.5245 19.5716 15.6159 19.7098 15.6092 19.7787C15.6007 19.8647 15.6572 19.9131 15.7786 19.9238C15.8827 19.933 15.9548 20.0001 15.9951 20.1252C16.0163 20.2659 16.0895 20.4113 16.2148 20.5612C16.2931 20.6549 16.3219 20.7182 16.3012 20.7511C16.2995 20.7683 16.2553 20.7731 16.1686 20.7654C16.0819 20.7578 16.029 20.7618 16.01 20.7775C16.0083 20.7947 16.0466 20.8501 16.1249 20.9438C16.3128 21.1687 16.289 21.3229 16.0534 21.4063C15.9097 21.4457 15.8075 21.5061 15.7471 21.5876C15.6883 21.6518 15.6998 21.7136 15.7814 21.7729C15.9118 21.8712 15.886 21.9557 15.7042 22.0265C15.6314 22.0548 15.543 22.0643 15.439 22.0552C15.3002 22.0429 15.2085 22.0869 15.1637 22.1871C15.1379 22.2717 15.0792 22.3359 14.9874 22.3799C14.8419 22.4365 14.7709 22.4476 14.7743 22.4132C14.7759 22.396 14.7975 22.3545 14.8389 22.2887C14.8854 22.1713 14.8904 22.1197 14.8541 22.1338C14.835 22.1495 14.8056 22.1816 14.7659 22.2302C14.6864 22.3274 14.5773 22.3698 14.4386 22.3576C14.2305 22.3393 14.016 22.2075 13.7951 21.9624C13.5932 21.7015 13.4746 21.4828 13.4394 21.3061C13.4182 21.1653 13.3556 21.0904 13.2515 21.0812C13.1648 21.0736 13.1864 21.0321 13.3162 20.9567C13.2709 20.8833 13.2222 20.8443 13.1702 20.8397C13.0488 20.829 12.9646 20.7955 12.9176 20.7393C12.8707 20.6831 12.8366 20.5846 12.8153 20.4439C12.7869 20.1983 12.672 20.0319 12.4706 19.9448C12.2692 19.8576 12.1996 19.7646 12.2617 19.666C12.2841 19.6159 12.2788 19.5807 12.2458 19.5604C12.2145 19.5229 12.1641 19.5011 12.0948 19.495C11.9213 19.4797 11.8388 19.4291 11.8473 19.343C11.8557 19.2569 11.8129 19.1577 11.719 19.0453C11.625 18.9328 11.5347 18.8728 11.4479 18.8651C11.3786 18.859 11.1325 18.603 10.7097 18.097L10.0965 17.392L9.98307 17.7465C9.93492 17.8812 9.90243 18.0345 9.8856 18.2067C9.90125 18.2254 9.83298 18.2975 9.68077 18.423C9.53193 18.514 9.50087 18.5633 9.58758 18.571C9.63961 18.5756 9.65721 18.6639 9.64037 18.836C9.61176 19.1286 9.52749 19.3642 9.38758 19.5429C9.29077 19.6385 9.29439 19.6909 9.39844 19.7C9.48516 19.7077 9.52262 19.7717 9.51084 19.8922C9.50074 19.9955 9.45233 20.0433 9.36562 20.0357C9.26156 20.0265 9.23496 20.1196 9.28582 20.3151L9.27824 20.3925C9.2939 20.4113 9.30089 20.4292 9.2992 20.4464C9.26049 20.8423 9.0587 21.2064 8.69384 21.5388C8.54164 21.6643 8.32679 21.7148 8.04931 21.6903C7.85855 21.6735 7.74051 21.6284 7.69522 21.555C7.66727 21.4831 7.52322 21.4357 7.26309 21.4127C6.90058 21.3634 6.62116 21.2694 6.42483 21.1305C6.36051 21.0728 6.34182 20.9062 6.36875 20.6309C6.41084 20.2006 6.49232 19.904 6.61321 19.741C6.73241 19.5953 6.76853 19.4943 6.72155 19.4381C6.70589 19.4194 6.69974 19.3928 6.70311 19.3583C6.7255 19.3082 6.74705 19.2667 6.76776 19.2338C6.84723 19.1367 6.90128 18.9418 6.92989 18.6492C6.95851 18.3566 7.03604 18.1899 7.16249 18.1489C7.25594 18.0877 7.31781 17.9022 7.34811 17.5924C7.37841 17.2826 7.41957 17.13 7.4716 17.1346C7.55831 17.1422 7.56504 17.0734 7.4918 16.9281C7.42024 16.7655 7.43034 16.6623 7.5221 16.6183C7.59652 16.5727 7.61891 16.5226 7.58928 16.468C7.55964 16.4133 7.63801 16.2379 7.8244 15.9418C7.94865 15.7445 8.01835 15.5683 8.0335 15.4134L8.04613 15.2844C8.06128 15.1295 8.09209 14.9933 8.13856 14.8759C8.22644 14.6927 8.22956 14.5714 8.14789 14.5121C8.06286 14.4873 8.07658 14.4364 8.18906 14.3595C8.29984 14.2999 8.41964 14.0587 8.54843 13.6361C8.76511 13.0302 8.87935 12.6671 8.89113 12.5466C8.8945 12.5122 8.93423 12.4636 9.01034 12.4008C9.06741 12.3538 9.11026 12.184 9.13888 11.8914C9.16749 11.5988 9.24839 11.3976 9.38157 11.2878C9.49741 11.1765 9.52401 11.0834 9.46138 11.0084C9.43006 10.9709 9.41608 10.935 9.41945 10.9006C9.42786 10.8145 9.50481 10.7432 9.65028 10.6866C9.79744 10.6127 9.95773 10.5835 10.1312 10.5987C10.3913 10.6217 10.5256 10.5901 10.534 10.504C10.5407 10.4352 10.5832 10.4476 10.6615 10.5413C10.7398 10.635 10.8483 10.688 10.9871 10.7002C11.1085 10.7109 11.2013 10.7451 11.2657 10.8029C11.3473 10.8622 11.4083 10.9543 11.4485 11.0794C11.4904 11.1872 11.5159 11.285 11.5248 11.3726C11.5354 11.4429 11.541 11.5649 11.5415 11.7386C11.5593 11.9137 11.5744 12.0279 11.5867 12.0811C11.6024 12.0998 11.6077 12.135 11.6026 12.1866C11.5942 12.2727 11.5304 12.3886 11.4112 12.5343C11.2937 12.6628 11.2315 12.7615 11.2248 12.8304L11.197 13.1143L11.7711 12.8785C12.1348 12.737 12.3384 12.7115 12.382 12.8021C12.4307 12.8412 12.4852 12.8199 12.5457 12.7385C12.6268 12.6241 12.7541 12.5745 12.9275 12.5898C13.1183 12.6066 13.2188 12.5634 13.2289 12.4601C13.2356 12.3913 13.3369 12.3395 13.5327 12.3047C13.7302 12.2526 13.907 12.2335 14.0631 12.2472C14.1498 12.2549 14.2261 12.279 14.2921 12.3195L14.3416 12.3499C14.359 12.3514 14.3607 12.3342 14.3467 12.2983C14.2874 12.1889 14.3227 12.0965 14.4525 12.0212C14.5997 11.9473 14.7124 11.9573 14.7907 12.051C14.9037 12.1477 14.973 12.1538 14.9988 12.0693C15.0022 12.0349 15.0212 12.0192 15.0559 12.0223C15.1079 12.0268 15.1809 12.0854 15.2748 12.1978C15.3688 12.3102 15.4462 12.4125 15.5072 12.5047L15.6221 12.6711C15.6204 12.6883 15.6867 12.8156 15.8209 13.0531C15.9288 13.2015 15.9718 13.3876 15.95 13.6113C15.9298 13.8179 15.8436 13.9839 15.6914 14.1093C15.3869 14.3603 15.1393 14.4773 14.9486 14.4605L14.8991 14.4301C14.8521 14.3739 14.7542 14.3913 14.6054 14.4823C14.4582 14.5562 14.3804 14.6361 14.372 14.7222C14.3669 14.7738 14.3541 14.8161 14.3334 14.849C14.3143 14.8646 14.2883 14.8623 14.2553 14.8421C14.2067 14.8031 14.0741 14.8174 13.8575 14.8851C13.6583 14.9544 13.5562 15.0148 13.5512 15.0665C13.5444 15.1353 13.4804 15.1644 13.359 15.1537ZM85.3039 11.6849C85.2691 11.7022 85.2517 11.7281 85.2517 11.7627C85.2517 11.8318 85.1472 11.8664 84.9382 11.8664H84.8859C84.555 11.8664 84.1979 11.9615 83.8148 12.1516C83.449 12.3245 83.2661 12.48 83.2661 12.6183V12.6702C83.2661 12.722 83.2574 12.7566 83.24 12.7739C83.24 12.7912 83.2139 12.7912 83.1616 12.7739H83.1355C83.0658 12.7739 82.8742 12.9122 82.5607 13.1887C82.2472 13.4653 82.0643 13.6036 82.0121 13.6036C81.8902 13.6036 81.8292 13.6382 81.8292 13.7073C81.8292 13.8801 81.7508 14.0444 81.5941 14.1999C81.4547 14.3555 81.4547 14.4851 81.5941 14.5888C81.6986 14.6753 81.7073 14.7185 81.6202 14.7185H81.5941C81.507 14.7185 81.4112 14.8481 81.3067 15.1074C81.2196 15.3667 81.1587 15.505 81.1238 15.5223C81.089 15.5568 81.0803 15.6173 81.0977 15.7037C81.1151 15.7902 81.0977 15.8593 81.0454 15.9112C80.9758 15.9285 80.9845 16.0667 81.0716 16.326C81.1587 16.5507 81.1412 16.7668 81.0193 16.9742C80.9322 17.1471 80.8887 17.3026 80.8887 17.4409C80.8887 17.7002 80.9932 17.9508 81.2022 18.1928C81.3938 18.383 81.4635 18.5385 81.4112 18.6595C81.4112 18.6768 81.4025 18.6855 81.3851 18.6855V18.7114C81.3851 18.8497 81.6812 19.0744 82.2734 19.3855C82.5869 19.5411 82.7436 19.6534 82.7436 19.7226C82.7436 19.7571 82.8742 19.809 83.1355 19.8781C83.3967 19.9473 83.6145 19.9819 83.7886 19.9819C83.8757 19.9819 83.9715 20.0164 84.076 20.0856C84.1283 20.1201 84.2241 20.0942 84.3634 20.0078C84.5027 19.9214 84.6072 19.8868 84.6769 19.9041C84.7988 19.9386 85.0514 19.8609 85.4346 19.6707C85.6261 19.5843 85.7829 19.5238 85.9048 19.4892C86.0267 19.4547 86.1225 19.4201 86.1922 19.3855C86.2619 19.3509 86.3751 19.2559 86.5318 19.1003C86.7408 18.8929 86.9324 18.746 87.1066 18.6595C87.2459 18.6077 87.2895 18.5126 87.2372 18.3743C87.2372 18.3398 87.2285 18.3138 87.2111 18.2965C87.2111 18.2447 87.2285 18.236 87.2633 18.2706C87.2808 18.2879 87.3069 18.2965 87.3417 18.2965C87.4288 18.2965 87.5507 18.2533 87.7075 18.1669C87.8642 18.0632 87.9426 17.994 87.9426 17.9595L87.9165 17.9335C87.8468 17.8817 87.8033 17.8212 87.7859 17.7521C87.7859 17.7002 87.8294 17.6829 87.9165 17.7002C87.9513 17.7175 87.9862 17.7088 88.021 17.6743C88.0558 17.6224 88.0819 17.5706 88.0994 17.5187C88.1342 17.3458 88.2213 17.2162 88.3606 17.1298C88.5 16.9915 88.587 16.7668 88.6219 16.4557C88.6567 16.1445 88.7003 15.9457 88.7525 15.8593C88.8222 15.7383 88.857 15.4358 88.857 14.9518C88.857 14.6061 88.8396 14.3987 88.8048 14.3296C88.7874 14.2604 88.6567 13.9752 88.4129 13.4739C88.2387 13.1282 88.0384 12.8344 87.812 12.5924C87.5856 12.3504 87.3853 12.2294 87.2111 12.2294C87.0543 12.2294 86.9237 12.1775 86.8192 12.0738C86.7321 11.9874 86.6363 11.9701 86.5318 12.022C86.4447 12.0738 86.3838 12.0652 86.3489 11.9961C86.3141 11.9096 86.2183 11.8664 86.0616 11.8664H85.7742C85.6523 11.8664 85.5739 11.8405 85.5391 11.7886C85.5216 11.7368 85.4868 11.7022 85.4346 11.6849C85.3823 11.6676 85.3388 11.6676 85.3039 11.6849ZM65.8033 12.0609C65.8033 12.0436 65.7945 12.0349 65.7771 12.0349V12.009C65.7771 11.9399 65.8294 11.8707 65.9339 11.8016C66.0384 11.7152 66.1342 11.672 66.2213 11.672C66.3083 11.672 66.3519 11.7152 66.3519 11.8016C66.3519 11.888 66.4128 11.9485 66.5348 11.9831C66.6741 12.0004 66.7699 11.9572 66.8222 11.8534C66.857 11.767 66.9528 11.7497 67.1095 11.8016C67.2663 11.8534 67.3447 11.9226 67.3447 12.009C67.3447 12.0954 67.3969 12.1905 67.5014 12.2942C67.6233 12.4152 67.6843 12.5535 67.6843 12.7091C67.6843 12.8474 67.632 12.9856 67.5275 13.1239C67.423 13.2968 67.3795 13.4178 67.3969 13.4869C67.4666 13.7289 67.5014 13.9277 67.5014 14.0833C67.5014 14.2388 67.4753 14.3166 67.423 14.3166C67.3185 14.3166 67.3011 14.4117 67.3708 14.6018C67.423 14.8438 67.4492 15.1895 67.4492 15.6389C67.4492 16.5896 67.3795 17.2032 67.2402 17.4798C67.1705 17.6008 67.1705 17.7218 67.2402 17.8428C67.3098 17.9638 67.2837 18.0934 67.1618 18.2317C67.0399 18.4219 67.0224 18.612 67.1095 18.8021C67.1269 18.854 67.1357 18.9145 67.1357 18.9836C67.1357 19.0701 67.0921 19.1824 67.005 19.3207C66.9179 19.4417 66.8744 19.5627 66.8744 19.6837C66.8744 19.8738 66.796 20.0467 66.6393 20.2022C66.4825 20.3405 66.3171 20.4097 66.1429 20.4097H66.0645C66.0471 20.3924 66.0297 20.3837 66.0123 20.3837C65.8555 20.3319 65.6117 20.2887 65.2807 20.2541C64.9498 20.2022 64.7147 20.1158 64.5753 19.9948C64.4534 19.8738 64.3925 19.6837 64.3925 19.4244C64.3925 19.0441 64.436 18.854 64.5231 18.854C64.5753 18.854 64.5841 18.8194 64.5492 18.7503C64.5492 18.733 64.5405 18.7071 64.5231 18.6725C64.5231 18.5688 64.5579 18.4219 64.6276 18.2317C64.7147 18.0243 64.7843 17.9206 64.8366 17.9206H64.8627C64.8801 17.9379 64.8889 17.9292 64.8889 17.8947L64.8627 17.6872C64.8279 17.4798 64.8366 17.3847 64.8889 17.402L65.0456 17.4798C65.0456 17.4625 65.0108 17.4107 64.9411 17.3242C64.8018 17.2205 64.7843 17.1427 64.8889 17.0909C64.9934 17.0217 65.0456 16.9613 65.0456 16.9094C65.0456 16.8921 65.0108 16.8835 64.9411 16.8835C64.8714 16.8835 64.8366 16.8316 64.8366 16.7279C64.8366 16.6242 64.8889 16.5291 64.9934 16.4427C65.0979 16.3563 65.1327 16.2353 65.0979 16.0797C65.0456 15.8896 65.0717 15.7945 65.1762 15.7945C65.2982 15.7945 65.2982 15.7599 65.1762 15.6908C65.0717 15.6216 65.063 15.5352 65.1501 15.4315C65.2546 15.3105 65.2895 15.1636 65.2546 14.9907V14.8352C65.2546 14.5932 65.2894 14.2907 65.3591 13.9277C65.4288 13.5474 65.4897 13.3141 65.542 13.2276C65.5942 13.1585 65.603 13.1066 65.5681 13.0721C65.5159 13.0721 65.4897 12.8906 65.4897 12.5276C65.4897 12.2683 65.5507 12.1387 65.6726 12.1387H65.7249C65.8294 12.1905 65.8555 12.1646 65.8033 12.0609ZM52.8843 13.8123C52.7903 13.909 52.7472 13.9917 52.7552 14.0604C52.7651 14.1464 52.6857 14.2937 52.517 14.5025C52.331 14.7131 52.3112 14.8455 52.4576 14.8999C52.5348 14.9614 52.5504 15.0207 52.5044 15.0776C52.4584 15.1345 52.3884 15.2114 52.2944 15.3081C52.2158 15.3858 52.1804 15.459 52.1883 15.5277C52.1962 15.5965 52.1361 15.7592 52.008 16.0159C51.8799 16.2727 51.8188 16.4268 51.8247 16.4784L51.8196 16.6615C51.8161 16.7835 51.8193 16.8875 51.8292 16.9735C51.8352 17.025 51.8305 17.0603 51.8151 17.0793C51.8156 17.2357 51.8042 17.289 51.781 17.2393C51.7558 17.1724 51.7095 17.1511 51.6422 17.1754C51.475 17.245 51.4033 17.3828 51.4271 17.589C51.4409 17.7093 51.3999 17.8092 51.3039 17.8887C51.1867 17.9357 51.134 18.0107 51.1459 18.1138C51.1597 18.2341 51.1253 18.3159 51.0427 18.3592C50.9448 18.4216 50.9604 18.4808 51.0895 18.5369C51.2013 18.5949 51.1966 18.6302 51.0754 18.6427C50.9369 18.6571 50.8745 18.7244 50.8884 18.8447C50.8928 19.0355 50.8807 19.1585 50.852 19.2137C50.8407 19.267 50.7994 19.2887 50.7281 19.2787C50.6742 19.2669 50.6406 19.2791 50.6272 19.3152C50.6139 19.3514 50.6275 19.3935 50.668 19.4414C50.7185 19.5753 50.7477 19.6766 50.7556 19.7453C50.7596 19.7797 50.7798 19.8037 50.8164 19.8172C50.8684 19.8119 50.9097 19.7902 50.9404 19.7522C51.0576 19.7053 51.1934 19.7433 51.3477 19.8664C51.5021 19.9895 51.7024 20.0557 51.9488 20.0649C51.9661 20.0631 51.9931 20.069 52.0297 20.0826L52.1076 20.0745C52.2634 20.0583 52.5033 19.8595 52.8273 19.4781C53.134 19.0985 53.2804 18.8486 53.2666 18.7283C53.2606 18.6767 53.3314 18.5303 53.4788 18.2889C53.6262 18.0476 53.6959 17.8925 53.688 17.8238C53.6781 17.7379 53.6905 17.6931 53.7251 17.6896C53.8117 17.6806 53.8461 17.5988 53.8282 17.4441C53.8144 17.3238 53.8968 17.2023 54.0753 17.0794C54.2386 16.9755 54.3476 16.7816 54.4025 16.4977C54.4347 16.3205 54.4861 16.1586 54.5569 16.0122C54.6276 15.8657 54.6889 15.7898 54.7409 15.7844C54.7755 15.7808 54.7948 15.7962 54.7988 15.8306L54.7787 15.8848L54.7876 15.9622C54.7555 16.1394 54.776 16.2416 54.8492 16.2687C54.9437 16.3285 54.9526 16.4058 54.876 16.5007C54.8493 16.573 54.8379 16.6264 54.8418 16.6608C54.8497 16.7295 54.8799 16.8394 54.9324 16.9904C54.9828 17.1243 55.011 17.217 55.017 17.2686C55.0229 17.3201 55.0791 17.4273 55.1854 17.5901C55.2918 17.753 55.323 17.8715 55.2789 17.9456C55.2196 18.0387 55.2005 18.1015 55.2218 18.1341C55.2431 18.1667 55.3309 18.2445 55.4852 18.3676C55.7321 18.5332 55.8968 18.5944 55.9794 18.551C56.0793 18.5059 56.1323 18.5091 56.1382 18.5606C56.1461 18.6294 56.2879 18.719 56.5634 18.8295C56.837 18.9228 57.069 18.9596 57.2594 18.9398C57.3806 18.9272 57.4719 18.883 57.5332 18.8071C57.6213 18.6588 57.6886 18.6344 57.7351 18.7339C57.7583 18.7837 57.7892 18.824 57.8278 18.8547C57.8817 18.8665 57.925 18.862 57.9577 18.8412C57.9883 18.8033 57.9997 18.7499 57.9918 18.6812C57.978 18.5609 58.0316 18.4945 58.1528 18.4819C58.2221 18.4747 58.3237 18.3685 58.4578 18.1634C58.5918 17.9582 58.7021 17.8511 58.7887 17.8421C58.856 17.8177 58.8886 17.797 58.8867 17.7798C58.8481 17.749 58.9045 17.6301 59.0558 17.4231C59.2285 17.2487 59.3088 17.11 59.297 17.0069C59.291 16.9553 59.315 16.9354 59.3689 16.9472C59.4575 16.9554 59.4948 16.8994 59.481 16.7791C59.4731 16.7104 59.4748 16.6493 59.4862 16.596C59.4975 16.5427 59.5215 16.5228 59.5581 16.5364C59.6121 16.5482 59.6586 16.6477 59.6977 16.8349C59.7234 17.0582 59.6883 17.2097 59.5923 17.2892C59.4617 17.3723 59.4652 17.5545 59.6027 17.8359C59.7229 18.119 59.7427 18.2908 59.6621 18.3513C59.5468 18.4155 59.5263 18.6176 59.6005 18.9576C59.6733 19.437 59.7962 19.6676 59.9693 19.6497L59.9953 19.647C60.028 19.6262 60.0529 19.6149 60.0703 19.6131C60.1875 19.5662 60.3272 19.6386 60.4895 19.8304C60.6537 20.0394 60.8012 20.1024 60.9318 20.0192C60.9797 19.9795 61.021 19.9578 61.0557 19.9542C61.0903 19.9506 61.1086 19.9574 61.1106 19.9746C61.0992 20.0279 61.1108 20.0528 61.1455 20.0492C61.1974 20.0438 61.2813 20.0873 61.397 20.1796C61.4569 20.243 61.5541 20.2502 61.6886 20.2015C61.8212 20.1356 61.9231 20.1076 61.9943 20.1176C62.0483 20.1294 62.0876 20.0905 62.1123 20.001C62.1524 19.8925 62.1665 19.7868 62.1546 19.6837C62.16 19.5788 62.1348 19.5118 62.0789 19.4829C62.0057 19.4557 62.0035 19.3603 62.0722 19.1966C62.141 19.033 62.1659 18.7174 62.1471 18.2499C62.0976 17.8203 62.1083 17.5323 62.179 17.3859C62.2132 17.2258 62.2243 17.0943 62.2124 16.9912C62.1966 16.8537 62.2208 16.6077 62.2851 16.2533C62.2905 16.1484 62.2863 16.0358 62.2725 15.9155C62.2665 15.864 62.2519 15.8133 62.2287 15.7636L62.2138 15.6347C62.202 15.5316 62.2371 15.3802 62.3192 15.1804C62.4394 14.8549 62.4483 14.6279 62.3459 14.4995C62.2262 14.3728 62.2009 14.3059 62.2702 14.2987C62.3394 14.2915 62.3572 14.1418 62.3236 13.8497C62.2899 13.5576 62.2491 13.4314 62.2011 13.4712C62.1838 13.473 62.1472 13.4594 62.0913 13.4304C61.985 13.2676 61.9662 13.1043 62.0349 12.9407C62.1917 12.6288 62.1576 12.4846 61.9325 12.5079C61.8113 12.5205 61.7448 12.4753 61.7329 12.3722C61.719 12.2519 61.6428 12.1989 61.5043 12.2133C61.3485 12.2295 61.2666 12.2032 61.2587 12.1345C61.2488 12.0486 61.1313 12.0173 60.9063 12.0407C60.6812 12.064 60.5637 12.0327 60.5538 11.9468C60.5419 11.8437 60.3888 11.8075 60.0945 11.838C59.8001 11.8686 59.5696 11.9968 59.4029 12.2228C59.2382 12.4659 59.1125 12.592 59.026 12.601C58.9394 12.61 58.9001 12.6488 58.908 12.7176C58.9199 12.8207 58.8702 12.9214 58.7589 13.0199C58.6149 13.1392 58.5988 13.2278 58.7106 13.2858C58.8051 13.3455 58.8237 13.4305 58.7663 13.5408C58.7243 13.6321 58.6723 13.6375 58.6105 13.557C58.5293 13.4611 58.4638 13.4244 58.4138 13.447C58.3292 13.4732 58.3268 13.6038 58.4064 13.839C58.49 14.1085 58.4886 14.2478 58.402 14.2568C58.3327 14.264 58.2912 14.2074 58.2773 14.0871C58.2655 13.984 58.2162 13.937 58.1297 13.946C58.0604 13.9532 58.0307 13.9997 58.0406 14.0856C58.0505 14.1715 57.9941 14.2904 57.8714 14.4423C57.4515 14.9032 57.2514 15.2195 57.2712 15.3914C57.2791 15.4601 57.2398 15.499 57.1532 15.5079C57.0666 15.5169 56.9905 15.464 56.9247 15.3491C56.8762 15.2324 56.8836 15.1447 56.9469 15.086C57.0449 15.0236 57.0671 14.7605 57.0137 14.2966C56.984 14.0388 56.9422 13.904 56.8882 13.8923C56.8343 13.8805 56.7995 13.8058 56.7836 13.6684C56.7831 13.5119 56.7596 13.384 56.7131 13.2845C56.6241 13.1198 56.6206 12.9376 56.7027 12.7378C56.7447 12.6465 56.7685 12.5484 56.7739 12.4435C56.7388 12.2907 56.6569 12.2644 56.5283 12.3647C56.511 12.3665 56.5157 12.3312 56.5424 12.2589C56.5845 12.1676 56.6015 12.0876 56.5936 12.0188C56.5659 11.7783 56.4172 11.6285 56.1476 11.5695C55.9878 11.5514 55.903 11.4993 55.8931 11.4134C55.8852 11.3447 55.812 11.3175 55.6735 11.3319C55.5176 11.348 55.4175 11.315 55.3729 11.2326C55.3091 11.1349 55.2495 11.1498 55.1941 11.2773C55.1174 11.3722 55.0761 11.3939 55.0702 11.3423L54.9544 11.25C54.6151 11.0418 54.4563 11.0322 54.4781 11.2212C54.4919 11.3415 54.4679 11.3614 54.4061 11.2808C54.3596 11.1813 54.319 11.1334 54.2844 11.137C54.2324 11.1424 54.1578 11.2544 54.0603 11.4732C53.9802 11.6902 53.9141 11.8014 53.8622 11.8068L53.8102 11.8122C53.741 11.8193 53.6633 11.9057 53.5773 12.0711C53.4912 12.2365 53.4541 12.3708 53.466 12.4739C53.4719 12.5254 53.4835 12.5503 53.5009 12.5485C53.5568 12.5775 53.4927 12.7058 53.3087 12.9336C53.1093 13.1803 53.0186 13.381 53.0364 13.5357C53.0463 13.6216 52.9956 13.7138 52.8843 13.8123ZM49.8891 14.05C49.8125 14.1449 49.78 14.2439 49.7919 14.347C49.8038 14.4501 49.7036 14.7213 49.4913 15.1606C49.2964 15.5982 49.2049 15.8685 49.2167 15.9716C49.2385 16.1606 49.208 16.2768 49.1254 16.3201C49.0754 16.3427 49.0544 16.3883 49.0623 16.4571C49.0702 16.5258 49.0569 16.5619 49.0223 16.5655C48.9703 16.5709 48.9092 16.7251 48.8389 17.0279C48.784 17.3119 48.7402 17.4642 48.7076 17.485C48.5903 17.5319 48.5685 17.6472 48.6422 17.8308C48.7159 18.0144 48.6615 18.1505 48.479 18.239C48.331 18.3239 48.265 18.435 48.2808 18.5725C48.2927 18.6756 48.2068 18.9192 48.0233 19.3034C47.857 19.6858 47.7769 19.9028 47.7828 19.9543C47.764 20.0954 47.6413 20.2472 47.4147 20.4098C47.0922 20.6519 46.6019 20.8071 45.944 20.8753C45.8228 20.8879 45.7602 20.877 45.7563 20.8426C45.7424 20.7223 45.6084 20.6232 45.3541 20.5452C45.1518 20.4619 44.9406 20.3012 44.7204 20.0632C44.4984 19.808 44.3584 19.6574 44.3005 19.6112C44.1847 19.5189 44.1499 19.4443 44.1959 19.3873C44.2266 19.3494 44.1877 19.2404 44.0794 19.0603C43.9577 18.9165 43.9043 18.7568 43.9192 18.5814C43.938 18.4403 43.9108 18.3562 43.8376 18.329C43.7624 18.2847 43.704 18.082 43.6625 17.7212C43.621 17.3604 43.5683 17.1311 43.5045 17.0334C43.4194 16.9031 43.4182 16.8163 43.5008 16.7729C43.5661 16.7314 43.5726 16.6351 43.5201 16.484C43.4657 16.3158 43.4039 16.2353 43.3346 16.2424C43.2481 16.2514 43.23 16.3228 43.2805 16.4567C43.3116 16.5752 43.2436 16.6692 43.0764 16.7387C42.9938 16.782 42.9285 16.8236 42.8805 16.8633C42.8325 16.9031 42.8191 16.9393 42.8404 16.9718C42.8909 17.1057 42.8894 17.245 42.8359 17.3896C42.7978 17.5153 42.7278 17.5921 42.6259 17.62C42.5433 17.6634 42.4523 17.7858 42.3528 17.9874C42.2534 18.189 42.2106 18.3499 42.2244 18.4702C42.2382 18.5905 42.1541 18.7731 41.9721 19.018C41.788 19.2458 41.6527 19.3641 41.5662 19.3731C41.4276 19.3875 41.3596 19.4815 41.3621 19.6551C41.3625 19.8115 41.2985 19.9399 41.1698 20.0402C41.0392 20.1233 40.9334 20.1169 40.8523 20.0209C40.8117 19.973 40.7588 19.9698 40.6935 20.0113C40.6608 20.0321 40.5433 20.0008 40.341 19.9175C40.156 19.8323 40.0375 19.7924 39.9856 19.7978C39.8471 19.8122 39.7093 19.7569 39.5723 19.632C39.4526 19.5053 39.3839 19.3647 39.3661 19.21C39.3562 19.1241 39.3742 19.0527 39.4202 18.9957C39.4816 18.9198 39.4947 18.8054 39.4596 18.6526C39.4225 18.4825 39.4799 18.3723 39.6318 18.3217C39.8297 18.2143 39.8918 18.0687 39.8181 17.8851C39.8161 17.8679 39.8054 17.8516 39.7861 17.8363L39.7773 17.7589C39.7496 17.5184 39.8968 17.1988 40.2188 16.8003C40.3415 16.6484 40.396 16.5124 40.3821 16.3921C40.3703 16.289 40.4526 16.1674 40.6292 16.0274C40.8059 15.8874 40.8729 15.7848 40.8304 15.7197C40.7878 15.6545 40.7896 15.5935 40.8356 15.5365C40.9028 15.5122 40.9113 15.4331 40.8608 15.2992C40.8509 15.2133 40.8643 15.1771 40.9009 15.1907C41.0127 15.2487 41.0607 15.2089 41.0448 15.0714C41.033 14.9683 41.1028 14.8133 41.2541 14.6063C41.4209 14.3804 41.5475 14.2629 41.6341 14.254C41.7207 14.245 41.7147 14.1934 41.6163 14.0993C41.4986 13.9898 41.5317 13.8212 41.7158 13.5934C41.8211 13.4434 41.8862 13.3236 41.9109 13.2341C41.9337 13.1274 42.0151 12.9973 42.1551 12.8437C42.3584 12.6313 42.4552 12.4822 42.4453 12.3963C42.4334 12.2932 42.4967 12.2344 42.6352 12.2201C42.7911 12.2039 42.7958 12.1686 42.6493 12.1143C42.5202 12.0581 42.5413 12.0125 42.7124 11.9773C42.797 11.9512 42.9432 11.9273 43.151 11.9058C43.3068 11.8896 43.5062 11.9472 43.749 12.0785C44.0092 12.208 44.17 12.2348 44.2313 12.1589C44.262 12.1209 44.2947 12.1002 44.3293 12.0966C44.4678 12.0822 44.6424 12.2293 44.8531 12.5378C44.9382 12.6681 45.0327 12.7278 45.1366 12.7171C45.1712 12.7135 45.2496 12.8618 45.3718 13.1622C45.4919 13.4453 45.5607 13.586 45.578 13.5842C45.6339 13.6132 45.6816 13.7995 45.7212 14.1431C45.7785 14.6414 45.7708 14.9552 45.6981 15.0845C45.6694 15.1396 45.656 15.1758 45.658 15.193C45.66 15.2102 45.6946 15.2066 45.7619 15.1822C45.8292 15.1578 45.8764 15.1877 45.9036 15.2718C45.9289 15.3388 45.9533 15.4753 45.9771 15.6815C46.0186 16.0424 46.0933 16.2346 46.2011 16.2582C46.2377 16.2718 46.2637 16.2691 46.279 16.2501C46.3097 16.2122 46.3221 16.1674 46.3161 16.1158C46.3062 16.0299 46.3926 15.9427 46.5751 15.8543C46.7097 15.8055 46.776 15.7726 46.774 15.7554C46.7893 15.7364 46.7488 15.6884 46.6523 15.6115C46.4846 15.5246 46.4661 15.4396 46.5967 15.3565C46.7253 15.2562 46.7683 15.1735 46.7258 15.1083C46.7065 15.0929 46.6939 15.0595 46.688 15.0079C46.6761 14.9048 46.7055 14.7801 46.7763 14.6336C46.8471 14.4872 46.9171 14.4104 46.9863 14.4032C47.0882 14.3752 47.1372 14.3441 47.1332 14.3097C47.0966 14.2961 47.1088 14.1731 47.1696 13.9408C47.2325 13.7256 47.2263 13.5958 47.1511 13.5515C47.0586 13.5089 47.0517 13.4487 47.1304 13.371C47.2263 13.2915 47.3144 13.1433 47.3945 12.9263C47.4747 12.7094 47.5069 12.5321 47.491 12.3947C47.4752 12.2572 47.5279 12.1822 47.6491 12.1696C47.7876 12.1553 47.8314 12.0029 47.7805 11.7126C47.7706 11.6267 47.8176 11.5784 47.9215 11.5676C48.0081 11.5586 48.0387 11.5206 48.0135 11.4537C47.9863 11.3696 48.0054 11.3068 48.0707 11.2652C48.1167 11.2083 48.1281 11.1549 48.1048 11.1052C48.0816 11.0554 48.0756 11.0039 48.087 10.9505C48.0984 10.8972 48.1387 10.8669 48.208 10.8597C48.3465 10.8454 48.4501 10.7564 48.5189 10.5928C48.5763 10.4825 48.6213 10.4169 48.654 10.3962C48.6846 10.3582 48.7203 10.3632 48.7608 10.4112C48.8014 10.4591 48.8555 10.5492 48.9233 10.6812C48.9911 10.8133 49.0432 10.8861 49.0798 10.8997C49.1165 10.9133 49.1404 10.8935 49.1518 10.8401C49.1632 10.7868 49.1939 10.7488 49.2439 10.7262C49.2918 10.6865 49.3534 10.6888 49.4286 10.7332C49.5231 10.7929 49.653 10.7795 49.8182 10.6928C49.9468 10.5925 50.0237 10.5758 50.049 10.6428C50.0509 10.6599 50.0386 10.7047 50.0118 10.777C49.9911 10.9009 50.0066 10.9601 50.0586 10.9547C50.0759 10.9529 50.1009 10.9417 50.1335 10.9209C50.2508 10.874 50.3133 10.8849 50.3213 10.9536C50.3311 11.0395 50.388 11.0771 50.4919 11.0663C50.6131 11.0537 50.6781 11.2383 50.687 11.6199C50.6964 12.1579 50.497 12.709 50.0888 13.2729C50.0007 13.4212 49.9666 13.5812 49.9864 13.753C49.9982 13.8561 49.9658 13.9551 49.8891 14.05ZM34.8421 10.9268C34.7376 10.9268 34.6592 10.9614 34.607 11.0305L34.5808 11.0565L34.5547 11.212C34.5895 11.212 34.5199 11.2985 34.3457 11.4713C34.1541 11.6269 34.0583 11.7565 34.0583 11.8602C34.0583 11.9467 34.0061 11.9726 33.9016 11.938H33.8754C33.8058 11.938 33.6403 12.0417 33.379 12.2492C33.1352 12.4566 32.9959 12.5603 32.961 12.5603C32.8914 12.5603 32.7782 12.664 32.6214 12.8714C32.4298 13.1307 32.2556 13.3295 32.0989 13.4678C31.8725 13.6579 31.7593 13.8221 31.7593 13.9604C31.7593 14.0987 31.6983 14.1851 31.5764 14.2197C31.4545 14.2543 31.2977 14.3753 31.1061 14.5827C30.9319 14.7901 30.8449 14.937 30.8449 15.0234C30.8449 15.0753 30.7926 15.1358 30.6881 15.2049C30.6184 15.2395 30.5836 15.3173 30.5836 15.4383C30.601 15.5593 30.5662 15.6198 30.4791 15.6198C30.3398 15.6198 30.2091 15.7235 30.0872 15.9309C30.0176 16.0519 29.8782 16.2334 29.6692 16.4754C29.4776 16.7174 29.3557 16.9335 29.3034 17.1236C29.2338 17.2619 29.1641 17.331 29.0944 17.331C29.0248 17.331 28.9464 17.3915 28.8593 17.5125C28.7896 17.6162 28.7635 17.7113 28.7809 17.7977C28.7809 17.8669 28.6764 17.9879 28.4674 18.1607C28.3107 18.299 28.1713 18.4892 28.0494 18.7311C27.9275 18.9731 27.8056 19.1633 27.6837 19.3016C27.5443 19.4917 27.4747 19.6213 27.4747 19.6905C27.4747 19.7769 27.553 19.872 27.7098 19.9757C27.9885 20.1831 28.18 20.3387 28.2845 20.4424L28.6242 20.8054L29.1728 20.6239C29.5386 20.5202 29.7215 20.4251 29.7215 20.3387C29.7215 20.2523 29.8347 20.0967 30.0611 19.872C30.2527 19.6818 30.5401 19.3793 30.9232 18.9645L31.4719 18.42L31.9683 18.5497C32.2818 18.6534 32.5169 18.662 32.6737 18.5756C32.8304 18.4892 32.9349 18.4978 32.9872 18.6015C33.0394 18.6879 33.0917 18.662 33.1439 18.5237C33.1787 18.4546 33.1962 18.4114 33.1962 18.3941C33.2136 18.3768 33.2397 18.3768 33.2745 18.3941C33.3094 18.4114 33.3616 18.4632 33.4313 18.5497C33.5881 18.7225 33.7709 18.7657 33.9799 18.6793C34.1541 18.6101 34.2673 18.5756 34.3196 18.5756C34.3892 18.5756 34.3979 18.6274 34.3457 18.7311C34.3283 18.8003 34.3544 18.8954 34.4241 19.0164C34.4937 19.1201 34.485 19.2151 34.3979 19.3016C34.2934 19.4053 34.276 19.5349 34.3457 19.6905C34.3805 19.846 34.3631 19.9238 34.2934 19.9238C34.2412 19.9238 34.2151 20.0794 34.2151 20.3905C34.2151 20.6844 34.2412 20.8313 34.2934 20.8313C34.3631 20.8313 34.3979 20.8745 34.3979 20.9609C34.3979 21.0301 34.3544 21.0474 34.2673 21.0128C34.2325 20.9955 34.1976 20.9869 34.1628 20.9869C34.0583 20.9869 34.1541 21.1338 34.4502 21.4276C34.8856 21.8252 35.2688 22.024 35.5997 22.024H35.652C35.6868 22.0067 35.7129 22.0153 35.7304 22.0499C35.7478 22.0672 35.7565 22.0931 35.7565 22.1277C35.7565 22.2833 35.8087 22.3611 35.9132 22.3611C36.0177 22.3611 36.1571 22.2746 36.3312 22.1018C36.5577 21.9116 36.6709 21.7042 36.6709 21.4795C36.6709 21.3585 36.7057 21.2462 36.7754 21.1424C36.8625 21.0387 36.8886 20.9091 36.8538 20.7535C36.8015 20.5807 36.8189 20.4165 36.906 20.2609C36.9757 20.1226 36.9757 20.0275 36.906 19.9757C36.8712 19.9238 36.8538 19.8633 36.8538 19.7942C36.8712 19.725 36.8538 19.6905 36.8015 19.6905C36.7144 19.6905 36.6709 19.6559 36.6709 19.5868C36.6709 19.5176 36.7318 19.5003 36.8538 19.5349C36.9234 19.5522 36.967 19.5436 36.9844 19.509C37.0018 19.4744 37.0105 19.388 37.0105 19.2497C37.0105 19.025 36.967 18.9126 36.8799 18.9126C36.8102 18.8781 36.8363 18.8176 36.9583 18.7311C37.0802 18.6447 37.0976 18.5496 37.0105 18.4459C36.9408 18.3249 36.9234 18.2472 36.9583 18.2126C37.0976 18.0743 37.1673 17.6422 37.1673 16.9162C37.1673 16.7433 37.1586 16.6223 37.1411 16.5532C37.0889 16.1729 37.0976 15.9482 37.1673 15.8791C37.2543 15.7754 37.2369 15.6889 37.115 15.6198C37.0105 15.5507 37.0018 15.5161 37.0889 15.5161C37.176 15.5161 37.2195 15.421 37.2195 15.2309C37.2195 15.0234 37.1847 14.9025 37.115 14.8679C37.0628 14.816 37.0279 14.7555 37.0105 14.6864C37.0279 14.5654 37.0889 14.5308 37.1934 14.5827C37.2456 14.6 37.2805 14.6086 37.2979 14.6086C37.3153 14.5913 37.324 14.5567 37.324 14.5049C37.324 14.453 37.3153 14.3925 37.2979 14.3234C37.2979 14.3061 37.2805 14.2283 37.2456 14.09C37.2108 13.9345 37.1934 13.8221 37.1934 13.753C37.1934 13.5628 37.1586 13.4678 37.0889 13.4678C37.0366 13.4678 37.0453 13.4332 37.115 13.3641C37.2369 13.2085 37.2456 13.1307 37.1411 13.1307C37.0715 13.1307 37.0366 13.0184 37.0366 12.7936C37.0366 12.5689 37.0192 12.4566 36.9844 12.4566C36.9321 12.4566 36.906 12.3961 36.906 12.2751C36.906 12.1714 36.8451 12.1195 36.7231 12.1195C36.6012 12.1195 36.5577 12.0677 36.5925 11.964C36.5925 11.8948 36.5577 11.8602 36.488 11.8602C36.4532 11.8775 36.4096 11.8602 36.3574 11.8084C36.3225 11.7565 36.2877 11.6874 36.2529 11.601C36.2006 11.4108 36.1135 11.3158 35.9916 11.3158C35.8523 11.3158 35.7652 11.2812 35.7304 11.212C35.7304 11.1429 35.6259 11.091 35.4168 11.0565C35.3646 11.0565 35.2688 11.0392 35.1295 11.0046C35.0075 10.9528 34.9118 10.9268 34.8421 10.9268ZM23.6795 12.3979C23.6604 12.1913 23.6799 12.0248 23.7382 11.8985C23.8137 11.7707 23.8444 11.6294 23.83 11.4744C23.8189 11.3539 23.829 11.2749 23.8606 11.2376C23.8921 11.2003 23.9701 11.1938 24.0948 11.2181C24.2888 11.2366 24.3827 11.2114 24.3763 11.1425C24.3731 11.1081 24.4914 11.0635 24.7311 11.0088L24.8352 11.0001C25.026 10.9842 25.1964 11.0307 25.3464 11.1397C25.5121 11.23 25.6021 11.3526 25.6165 11.5076C25.6372 11.7314 25.6649 11.8419 25.6996 11.839C25.769 11.8332 25.8213 12.0197 25.8563 12.3985C25.9026 12.8979 25.8863 13.1942 25.8075 13.2876C25.7287 13.3809 25.7383 13.4842 25.8362 13.5975C25.9357 13.728 25.9587 13.8823 25.9053 14.0602C25.8628 14.1679 25.8637 14.2719 25.9079 14.3723C25.9506 14.4555 25.9499 14.5424 25.9058 14.6328C25.835 14.8122 25.8076 14.988 25.8235 15.1602C25.8173 15.2822 25.7931 15.4924 25.7508 15.791C25.7242 16.0708 25.7182 16.3836 25.7327 16.7295C25.7554 17.3522 25.7676 17.6722 25.7692 17.6895C25.7708 17.7067 25.7874 17.792 25.8191 17.9456C25.8666 18.0804 25.8943 18.1909 25.9022 18.277C25.9134 18.3975 25.8938 18.4686 25.8433 18.4901C25.7928 18.5117 25.7748 18.6 25.7891 18.7549C25.7955 18.8238 25.8145 18.935 25.8462 19.0885C25.8779 19.2421 25.897 19.3533 25.9034 19.4221C25.9209 19.6115 25.8958 19.7177 25.8279 19.7408C25.727 19.7839 25.6845 19.8915 25.7005 20.0637C25.7354 20.2517 25.7158 20.4182 25.6418 20.5631C25.5662 20.6909 25.4677 20.7599 25.3462 20.77C25.2595 20.7772 25.1688 20.7414 25.074 20.6626C24.9983 20.5995 24.8673 20.6017 24.6813 20.6693C24.5473 20.7325 24.3414 20.7757 24.0638 20.7989C23.6474 20.8336 23.4336 20.7907 23.4225 20.6702C23.4193 20.6358 23.4413 20.5905 23.4886 20.5345C23.55 20.4427 23.5066 20.3509 23.3582 20.2591C23.2082 20.1502 23.1309 20.0699 23.1261 20.0182C23.1181 19.9321 23.1504 19.9034 23.223 19.932L23.249 19.9299C23.3358 19.9226 23.3489 19.5919 23.2883 18.9375C23.2644 18.6792 23.2382 18.4906 23.2097 18.3715C23.1828 18.2696 23.1582 18.1936 23.1361 18.1434C23.1313 18.0917 23.11 18.0501 23.0721 18.0186C23.0516 17.9856 23.0145 17.9626 22.9608 17.9498C22.9245 17.9354 22.8717 17.9312 22.8023 17.937C22.6461 17.95 22.4939 17.9106 22.3455 17.8189C22.1971 17.7272 22.0449 17.6878 21.8887 17.7008C21.6458 17.7211 21.5188 17.671 21.5076 17.5504C21.4965 17.4299 21.4634 17.45 21.4083 17.6108C21.3565 17.806 21.172 17.8908 20.8549 17.8652C20.6261 17.8495 20.4881 17.8697 20.4409 17.9257C20.4094 17.9631 20.4607 18.0455 20.5949 18.1732C20.6896 18.252 20.6724 18.3489 20.5431 18.4638C20.3966 18.5801 20.3636 18.7911 20.4444 19.0967C20.5094 19.421 20.5033 19.6384 20.4261 19.7489C20.4119 19.7848 20.4009 19.8551 20.3932 19.9599L20.365 20.2225C20.373 20.3086 20.3683 20.3524 20.3509 20.3538C20.2815 20.3596 20.1964 20.3841 20.0955 20.4272C20.0119 20.4689 19.9354 20.4926 19.866 20.4984C19.795 20.487 19.7209 20.4411 19.6435 20.3608C19.525 20.2145 19.4367 20.2045 19.3784 20.3308C19.3549 20.4543 19.2871 20.4773 19.175 20.3999C19.0803 20.321 19.0156 20.283 18.9809 20.2859C18.8247 20.2989 18.6567 20.2783 18.4768 20.2239C18.2954 20.1522 18.2015 20.082 18.1951 20.0131C18.1855 19.9098 18.146 19.861 18.0766 19.8668C18.0419 19.8697 18.0166 19.7851 18.0007 19.6129C17.9991 19.5957 18.0213 18.8911 18.0672 17.4991C18.0577 17.3958 18.0987 17.3663 18.1902 17.4107L18.2162 17.4086C18.355 17.397 18.3885 17.0038 18.3168 16.2289C18.3025 16.0739 18.3387 15.9928 18.4254 15.9856C18.4428 15.9842 18.4506 15.9748 18.4491 15.9576C18.4632 15.9217 18.46 15.8873 18.4395 15.8543C18.3811 15.7898 18.4117 15.6484 18.5314 15.4302C18.6321 15.1962 18.6855 14.9228 18.6915 14.61C18.6927 14.2455 18.7272 14.0517 18.795 14.0287C18.8612 13.9885 18.8698 13.8923 18.8208 13.7403C18.7685 13.5537 18.8165 13.4109 18.9647 13.3118C19.1144 13.2299 19.1428 13.1581 19.0496 13.0965C18.9392 13.0363 18.935 12.8024 19.0371 12.3948C19.1596 11.8293 19.3076 11.5393 19.4811 11.5249C19.5679 11.5176 19.6491 11.5455 19.7249 11.6086C19.8575 11.719 20.0193 11.7663 20.2101 11.7504L20.3923 11.7352C20.774 11.7033 20.9792 11.8424 21.0079 12.1523C21.0302 12.3934 20.9767 12.5713 20.8475 12.6862C20.7514 12.781 20.7554 12.8241 20.8595 12.8154C20.9289 12.8096 20.9707 12.8842 20.9851 13.0392C21.009 13.2974 20.9779 13.7165 20.8917 14.2963C20.7995 15.1889 20.7573 15.6783 20.7653 15.7644C20.7701 15.816 20.7812 15.8411 20.7985 15.8397C20.8143 15.821 20.8308 15.811 20.8482 15.8095C20.9806 15.7291 21.3418 15.6642 21.9317 15.615C22.3828 15.5774 22.6714 15.5793 22.7977 15.6209C22.9949 15.6738 23.1234 15.6457 23.1833 15.5366C23.2305 15.4806 23.2707 15.4426 23.3038 15.4225C23.3543 15.4009 23.3882 15.3894 23.4055 15.388C23.4213 15.3693 23.4268 15.3341 23.422 15.2825C23.4346 15.2294 23.444 15.1418 23.4501 15.0199C23.4262 14.7616 23.4615 14.5764 23.5561 14.4644C23.5876 14.4271 23.601 14.3826 23.5962 14.3309C23.6072 14.2606 23.6032 14.2176 23.5842 14.2018C23.5826 14.1846 23.5716 14.1595 23.551 14.1265C23.5399 14.006 23.5594 13.8395 23.6097 13.6271C23.6773 13.4132 23.7442 13.2862 23.8104 13.2459C23.823 13.1928 23.7851 13.1613 23.6968 13.1513C23.558 13.1629 23.528 13.122 23.6067 13.0287C23.6855 12.9353 23.7098 12.7251 23.6795 12.3979ZM71.0508 19.8423C71.2075 19.9633 71.2859 20.0497 71.2859 20.1016C71.2859 20.188 71.3556 20.2831 71.4949 20.3868C71.6516 20.4732 71.7649 20.4991 71.8345 20.4646C71.9216 20.4127 71.9826 20.4559 72.0174 20.5942C72.0174 20.6806 72.0871 20.7152 72.2264 20.6979C72.3657 20.6806 72.4528 20.6979 72.4877 20.7498C72.5225 20.8016 72.5835 20.8189 72.6705 20.8016C72.775 20.7843 72.8708 20.7757 72.9579 20.7757C73.0624 20.7757 73.1147 20.8016 73.1147 20.8535C73.1147 20.9226 73.1495 20.9485 73.2192 20.9313C73.3411 20.8621 73.5153 20.8708 73.7417 20.9572C73.8636 20.9918 73.9507 21.009 74.003 21.009C74.0726 21.009 74.1162 21.0004 74.1336 20.9831C74.1336 20.914 74.2381 20.8794 74.4471 20.8794C74.6561 20.8794 74.7867 20.8362 74.839 20.7498C74.8738 20.6979 74.9086 20.7152 74.9435 20.8016C74.9957 20.8708 75.0567 20.8708 75.1264 20.8016C75.1438 20.7843 75.2221 20.7411 75.3615 20.672L75.7272 20.4905C75.8492 20.4213 75.9014 20.3608 75.884 20.309C75.884 20.2398 75.9101 20.2139 75.9624 20.2312C76.032 20.2485 76.0669 20.2312 76.0669 20.1793C76.0669 20.0929 76.1453 20.067 76.302 20.1016C76.4588 20.1188 76.5546 20.067 76.5894 19.946C76.6591 19.7904 76.7635 19.6694 76.9029 19.583C77.0771 19.4793 77.1641 19.3583 77.1641 19.22C77.1641 19.0644 77.2425 18.9867 77.3993 18.9867C77.5386 18.9867 77.6257 18.9089 77.6605 18.7533C77.6954 18.5805 77.8173 18.3903 78.0263 18.1829C78.2527 17.9582 78.3398 17.7853 78.2876 17.6643C78.2353 17.5261 78.2963 17.3964 78.4704 17.2754C78.6272 17.1717 78.7056 16.9556 78.7056 16.6272C78.7056 16.2469 78.6185 15.9704 78.4443 15.7975L78.3137 15.6679C78.2963 15.6333 78.2876 15.6074 78.2876 15.5901C78.2876 15.5555 78.2963 15.5382 78.3137 15.5382C78.3311 15.521 78.3659 15.495 78.4182 15.4605C78.5227 15.4086 78.5662 15.3395 78.5488 15.253C78.514 15.1148 78.4269 15.1061 78.2876 15.2271C78.2179 15.279 78.1743 15.3049 78.1569 15.3049V15.0975C78.1569 14.9419 78.035 14.8209 77.7912 14.7345C77.5473 14.6308 77.3122 14.5789 77.0858 14.5789C76.9813 14.5789 76.929 14.5962 76.929 14.6308L76.8768 14.7604C76.8071 14.8641 76.7723 14.8641 76.7723 14.7604C76.7723 14.6394 76.6939 14.6135 76.5371 14.6826C76.4675 14.6999 76.3456 14.7258 76.1714 14.7604C76.0146 14.7777 75.8666 14.8036 75.7272 14.8382C75.6053 14.8728 75.5269 14.9246 75.4921 14.9938C75.4224 15.0283 75.3702 15.0456 75.3354 15.0456C75.3005 15.0456 75.2221 15.0283 75.1002 14.9938C74.9783 14.9592 74.8825 14.9419 74.8128 14.9419C74.6213 14.9073 74.4906 14.9073 74.421 14.9419C74.3687 14.9765 74.2816 15.0802 74.1597 15.253C73.9507 15.5296 73.8288 15.6679 73.7939 15.6679C73.7243 15.6679 73.6894 15.763 73.6894 15.9531C73.6894 16.1259 73.6285 16.2124 73.5066 16.2124C73.4021 16.2124 73.3498 16.2729 73.3498 16.3939C73.3498 16.4284 73.3324 16.4889 73.2976 16.5754C73.2801 16.6618 73.2714 16.7223 73.2714 16.7569C73.2714 16.8433 73.3846 16.9297 73.6111 17.0161C73.8375 17.0853 73.9594 17.1458 73.9768 17.1976C74.0291 17.3359 74.0813 17.3532 74.1336 17.2495C74.1858 17.1631 74.2555 17.1458 74.3426 17.1976C74.4471 17.2322 74.4471 17.2927 74.3426 17.3791L74.3165 17.431L74.7083 17.4569C75.0567 17.4569 75.3005 17.4051 75.4399 17.3013C75.5444 17.2495 75.6489 17.2668 75.7534 17.3532C75.8579 17.4396 75.9624 17.4656 76.0669 17.431C76.2236 17.3964 76.302 17.3964 76.302 17.431C76.302 17.4828 76.1801 17.5952 75.9362 17.7681C75.7098 17.9409 75.5618 18.0273 75.4921 18.0273C75.4224 18.0273 75.3441 18.0878 75.257 18.2088C75.1699 18.3125 75.0915 18.3471 75.0218 18.3125H74.9696C74.8999 18.3125 74.7693 18.3817 74.5777 18.52C74.3861 18.641 74.2468 18.7015 74.1597 18.7015C74.0552 18.7015 73.9942 18.6496 73.9768 18.5459C73.9246 18.4249 73.8288 18.3817 73.6894 18.4162H73.6372C73.5327 18.4162 73.3846 18.3557 73.1931 18.2348C73.0015 18.0965 72.8795 18.0273 72.8273 18.0273C72.6183 18.0273 72.5138 17.8285 72.5138 17.431C72.5138 17.1199 72.4877 16.947 72.4354 16.9124C72.3483 16.8779 72.3048 16.6013 72.3048 16.0827C72.3048 15.616 72.3396 15.3481 72.4093 15.279C72.4615 15.1925 72.4877 15.0629 72.4877 14.89C72.4877 14.7863 72.5312 14.6913 72.6183 14.6048C72.7228 14.5184 72.775 14.4147 72.775 14.2937C72.775 14.1209 72.8883 13.9999 73.1147 13.9307C73.3411 13.827 73.4543 13.7492 73.4543 13.6974C73.4543 13.6628 73.4891 13.6542 73.5588 13.6714C73.6459 13.6887 73.6894 13.6628 73.6894 13.5937C73.6894 13.5245 73.7243 13.4899 73.7939 13.4899C73.8636 13.4727 73.9333 13.4813 74.003 13.5159C74.09 13.5332 74.151 13.5332 74.1858 13.5159C74.2381 13.4813 74.2468 13.4208 74.212 13.3344L74.1597 13.2047C74.1771 13.1874 74.2294 13.2134 74.3165 13.2825C74.421 13.3862 74.508 13.3949 74.5777 13.3084C74.6648 13.1702 74.9435 13.101 75.4137 13.101C75.6227 13.101 75.7534 13.127 75.8056 13.1788C75.9275 13.2652 76.032 13.2652 76.1191 13.1788C76.1365 13.1615 76.1714 13.1529 76.2236 13.1529C76.3281 13.1529 76.4413 13.2134 76.5633 13.3344C76.7026 13.4381 76.7723 13.5332 76.7723 13.6196C76.7723 13.6887 76.9029 13.7233 77.1641 13.7233C77.4254 13.7233 77.556 13.6542 77.556 13.5159C77.556 13.4294 77.6083 13.3344 77.7128 13.2307C77.8347 13.127 77.8957 13.0146 77.8957 12.8936L77.9218 12.738C77.9392 12.6516 77.9741 12.6257 78.0263 12.6602C78.096 12.7121 78.1308 12.7121 78.1308 12.6602C78.1482 12.5738 78.0698 12.4788 77.8957 12.375C77.7563 12.2886 77.7302 12.1849 77.8173 12.0639C77.8696 12.012 77.8434 11.9429 77.7389 11.8565C77.6518 11.7528 77.6083 11.6836 77.6083 11.6491C77.6083 11.5626 77.3993 11.433 76.9813 11.2601C76.5633 11.0873 76.1888 10.9836 75.8579 10.949C75.823 10.949 75.6924 10.9317 75.466 10.8971C75.257 10.8626 75.0915 10.8453 74.9696 10.8453C74.7258 10.8453 74.6038 10.9058 74.6038 11.0268C74.6038 11.1132 74.5516 11.1132 74.4471 11.0268C74.36 10.9404 74.151 10.9749 73.8201 11.1305C73.5066 11.2861 73.3498 11.3984 73.3498 11.4676C73.3498 11.5021 73.0189 11.6577 72.357 11.9343C72.1829 11.9861 72.0958 12.0725 72.0958 12.1935C72.0958 12.2627 72.0261 12.3578 71.8868 12.4788C71.7474 12.5825 71.6865 12.6775 71.7039 12.764C71.7736 12.885 71.73 12.9455 71.5733 12.9455C71.4513 12.9455 71.3904 13.0232 71.3904 13.1788C71.373 13.2307 71.3556 13.2912 71.3381 13.3603C71.3033 13.3257 71.2511 13.3344 71.1814 13.3862C71.1117 13.4381 71.0595 13.5072 71.0246 13.5937C70.9898 13.6628 70.9811 13.7147 70.9985 13.7492C71.0508 13.8184 70.9985 13.9134 70.8417 14.0344C70.6676 14.1554 70.6066 14.3024 70.6589 14.4752C70.7285 14.6653 70.7111 14.7604 70.6066 14.7604C70.5369 14.7604 70.5195 14.795 70.5544 14.8641C70.5892 14.9333 70.5718 14.9678 70.5021 14.9678C70.4324 14.9678 70.3366 15.0802 70.2147 15.3049C70.0928 15.5123 70.0318 15.6679 70.0318 15.7716C70.0318 15.8407 70.0928 15.8753 70.2147 15.8753C70.267 15.8753 70.3105 15.8926 70.3454 15.9272C70.3802 15.9617 70.3889 16.005 70.3715 16.0568C70.3715 16.0914 70.3454 16.1259 70.2931 16.1605C70.206 16.2124 70.1625 16.3766 70.1625 16.6532C70.1625 16.9816 70.1189 17.2322 70.0318 17.4051C70.0144 17.4569 70.0057 17.5174 70.0057 17.5866C70.0057 17.6557 70.0318 17.7421 70.0841 17.8458C70.1363 17.9323 70.1625 18.0187 70.1625 18.1051C70.1625 18.2607 70.1973 18.4076 70.267 18.5459C70.3367 18.6669 70.3715 18.7879 70.3715 18.9089C70.3715 19.0817 70.4499 19.2114 70.6066 19.2978C70.7634 19.3842 70.8417 19.4706 70.8417 19.5571C70.8417 19.6262 70.9114 19.7213 71.0508 19.8423Z" fill="#5F1E5C"/>
</svg>
