<svg width="132" height="52" viewBox="0 0 132 52" fill="none" xmlns="http://www.w3.org/2000/svg">
<path d="M19.584 34.1034C18.8276 33.74 18.0334 33.4404 17.2266 33.2108C17.6237 31.6934 17.8444 30.1314 17.8885 28.5566H21.7397C21.5885 30.584 20.8321 32.5159 19.584 34.1034ZM7.04067 26.9627C7.08479 25.509 7.2991 24.0681 7.67099 22.6655C9.00097 22.9205 10.3498 23.048 11.6987 23.048C13.0476 23.048 14.3965 22.9205 15.7202 22.6655C16.0984 24.0681 16.3064 25.509 16.3505 26.9627H7.04067ZM11.6798 32.4712C10.3309 32.4712 8.98206 32.5988 7.65208 32.8538C7.28019 31.4511 7.06588 30.0102 7.02176 28.5566H16.3127C16.2686 30.0039 16.0542 31.4448 15.6824 32.8474C14.3524 32.5988 13.0035 32.4712 11.6546 32.4712M6.61205 34.7282C6.93982 35.6208 7.38104 36.4624 7.92312 37.2403C6.81376 36.7876 5.79264 36.1436 4.91019 35.3276C5.46487 35.0853 6.03216 34.8876 6.61205 34.7282ZM5.46487 28.5566C5.50899 30.1314 5.73591 31.6934 6.13301 33.2108C5.3262 33.4404 4.5383 33.7336 3.78192 34.1034C2.53389 32.5159 1.7775 30.584 1.61992 28.5566H5.46487ZM6.13301 22.3339C5.73591 23.8513 5.50899 25.4134 5.46487 26.9882H1.61362C1.7712 24.9543 2.52128 23.0097 3.78192 21.4158C4.5383 21.792 5.3262 22.098 6.13301 22.3339ZM6.61836 20.8165C6.03846 20.6571 5.47118 20.4595 4.91649 20.2172C5.79894 19.4011 6.82006 18.7572 7.92942 18.3045C7.38735 19.0823 6.94612 19.9239 6.61836 20.8165ZM15.4428 18.3045C16.5522 18.7572 17.5733 19.4075 18.4558 20.2172C17.9011 20.4595 17.3275 20.6571 16.7476 20.8165C16.4198 19.9303 15.9786 19.0823 15.4428 18.3045ZM15.2096 21.1672C12.8837 21.5816 10.5011 21.5816 8.17525 21.1672C9.08291 18.8974 10.4129 17.5649 11.6924 17.5649C12.972 17.5649 14.302 18.8974 15.2096 21.1672ZM16.7476 34.7474C17.3275 34.9195 17.9011 35.1363 18.4558 35.3849C17.5733 36.1946 16.5522 36.845 15.4428 37.2976C15.9849 36.5071 16.4198 35.6527 16.7476 34.7474ZM11.705 38.0053C10.4444 38.0053 9.09551 36.6728 8.18785 34.4031C10.5137 33.9887 12.8963 33.9887 15.2222 34.4031C14.3146 36.6728 12.9846 38.0053 11.705 38.0053ZM17.9137 26.9882C17.8633 25.4134 17.63 23.8513 17.2266 22.3339C18.0398 22.1044 18.8276 21.8047 19.584 21.4413C20.8321 23.0289 21.5885 24.9607 21.7397 26.9882H17.9137ZM11.6798 15.9583C5.23165 15.9583 0 21.2437 0 27.7724C0 34.3011 5.23165 39.5865 11.6798 39.5865C18.128 39.5865 23.3596 34.2947 23.3596 27.7724C23.3596 27.7724 23.3596 27.766 23.3596 27.7596C23.347 21.2437 18.1217 15.9646 11.6798 15.9583Z" fill="#379CD7"/>
<path d="M130.628 21.0589H120.795V25.4517C121.286 24.9353 121.891 24.5463 122.559 24.3041C124.671 23.5326 127.016 23.7685 128.938 24.9416C129.953 25.6366 130.747 26.6057 131.226 27.7469C131.712 28.9264 131.958 30.1952 131.951 31.4767C131.951 33.9632 131.258 35.9333 129.871 37.387C128.484 38.8406 126.531 39.5611 124.009 39.5483C122.49 39.5866 120.99 39.2869 119.597 38.6748C118.431 38.152 117.441 37.3041 116.729 36.233C116.048 35.1555 115.664 33.9122 115.626 32.6307H120.889C121.003 33.2683 121.324 33.8485 121.803 34.2756C122.364 34.7283 123.07 34.9578 123.789 34.9132C124.633 34.977 125.459 34.6199 125.995 33.9568C126.512 33.2109 126.764 32.3119 126.72 31.4066C126.776 30.5395 126.505 29.6851 125.963 29.0157C124.854 28.0338 123.234 27.9127 121.992 28.716C121.538 29.054 121.217 29.5449 121.078 30.0996H115.878V16.2771H130.596L130.628 21.0589Z" fill="#379CD7"/>
<path d="M50.2052 3.62769H47.6461L46.2089 5.89105L44.7781 3.62769H42.1875L44.7025 7.36383L41.9795 11.2912H44.5386L46.1837 8.81748L47.8226 11.2912H50.451L47.6902 7.3447L50.2052 3.62769Z" fill="white"/>
<path d="M104.362 20.7656V25.4134H111.781V29.7425H104.362V34.7857H112.751V39.2742H98.8213V16.2771H112.751V20.7656H104.362Z" fill="#0F62AE"/>
<path d="M75.4616 46.7402C75.2914 46.0006 74.8565 45.3503 74.2388 44.9103C73.5643 44.464 72.7701 44.2409 71.9633 44.2728C71.27 44.26 70.5829 44.4322 69.9778 44.7701C69.4042 45.0889 68.9378 45.567 68.6226 46.1472C68.2885 46.7593 68.1247 47.4542 68.1373 48.1556C68.1247 48.8569 68.2885 49.5455 68.6226 50.1575C68.9378 50.725 69.4042 51.1904 69.9652 51.5092C70.5766 51.8407 71.2573 52.0128 71.9507 52.0001C72.5369 52.0128 73.1168 51.8853 73.6463 51.6303C74.5728 51.1904 75.2788 50.3679 75.575 49.3733V47.6519H71.604V49.0163H73.9299C73.8164 49.4179 73.5769 49.7686 73.2492 50.0173C72.9151 50.2532 72.518 50.3743 72.1083 50.3615C71.541 50.3743 70.9926 50.1575 70.5955 49.7495C69.858 48.8059 69.858 47.4734 70.5955 46.5298C70.9674 46.1281 71.4843 45.9113 72.0263 45.9368C72.3352 45.9304 72.6441 45.9942 72.9214 46.1345C73.1672 46.262 73.3689 46.466 73.5013 46.7147L75.4616 46.7402ZM67.1161 44.3365H65.2819V49.0482L62.2186 44.3365H60.3906V51.9427H62.2186V47.2502L65.2819 51.9427H67.1161V44.3365ZM57.2264 51.9427H59.0607V44.3365H57.2264V51.9427ZM52.1397 50.3424H51.2699V45.9241H52.1397C53.2428 45.8157 54.2261 46.6381 54.3333 47.7539C54.3459 47.8878 54.3459 48.0153 54.3333 48.1492C54.3648 48.7421 54.1568 49.3223 53.7534 49.7495C53.3121 50.1511 52.7322 50.3615 52.1397 50.3233M52.2532 44.3174H49.4357V51.9427H52.2532C52.9718 51.9618 53.684 51.7961 54.327 51.4709C54.9069 51.1649 55.3859 50.6995 55.7137 50.1256C56.3629 48.8824 56.3629 47.3969 55.7137 46.1536C55.3922 45.5862 54.9132 45.1207 54.3333 44.8147C53.6903 44.4832 52.9781 44.3174 52.2532 44.3365M43.8952 49.1693L44.8217 46.3831L45.7483 49.1693H43.8952ZM46.6749 51.9427H48.61L45.8933 44.3365H43.7691L41.0461 51.9427H42.9371L43.3909 50.6038H46.1958L46.6749 51.9427ZM40.3717 45.8221V44.3365H35.7451V51.9427H40.3402V50.4572H37.5731V48.7931H40.0313V47.3586H37.5731V45.8221H40.3717ZM30.608 45.8731H31.7426C32.0199 45.8539 32.291 45.9432 32.499 46.1217C32.6755 46.3066 32.7637 46.5553 32.7511 46.8103C32.77 47.0717 32.6755 47.3267 32.499 47.5116C32.291 47.6901 32.0199 47.7794 31.7426 47.7603H30.608V45.8731ZM34.6673 51.9427L32.9339 48.9334C33.4382 48.7995 33.8794 48.5062 34.1945 48.0854C34.4719 47.6901 34.6232 47.2183 34.6169 46.7338C34.6169 46.3066 34.5097 45.8794 34.3017 45.5096C34.0811 45.1335 33.747 44.8275 33.3499 44.6489C32.8772 44.4258 32.354 44.3238 31.8308 44.3365H28.7549V51.9427H30.5891V49.0737H31.0303L32.5935 51.9427H34.6673Z" fill="white"/>
<path d="M29.5498 21.6965C30.489 19.9496 31.9009 18.5087 33.6154 17.5396C35.4244 16.5258 37.4604 16.0094 39.5278 16.0477C42.0113 15.9839 44.4443 16.7426 46.4613 18.209C48.3838 19.6627 49.7516 21.7475 50.3126 24.1065H44.2237C43.814 23.1948 43.1458 22.4297 42.2949 21.9133C41.4377 21.4032 40.4544 21.1418 39.4585 21.1546C37.8827 21.0908 36.351 21.7348 35.2984 22.927C34.189 24.2723 33.6217 25.9937 33.7099 27.7406C33.628 29.4812 34.1953 31.1963 35.2984 32.5352C36.3447 33.7274 37.8638 34.3905 39.4396 34.3331C40.4355 34.3522 41.4188 34.0908 42.276 33.5808C43.1206 33.058 43.7951 32.2993 44.2048 31.3875H50.2937C49.7327 33.7402 48.3649 35.825 46.4424 37.2659C44.4254 38.7259 41.986 39.4783 39.5089 39.4081C37.4414 39.4464 35.4055 38.9363 33.5965 37.9226C31.8946 36.9599 30.4953 35.5381 29.5498 33.8103C28.5539 31.9486 28.056 29.8637 28.0938 27.747C28.0623 25.6367 28.5602 23.5518 29.5498 21.6965Z" fill="#0F62AE"/>
<path d="M58.0332 9.33399C57.0436 9.34674 56.2305 8.54341 56.2179 7.53605C56.2179 7.4978 56.2179 7.45954 56.2179 7.42129C56.2179 6.40118 57.031 5.57872 58.0396 5.57872C59.0481 5.57872 59.8612 6.40118 59.8612 7.42129C59.9116 8.42864 59.1552 9.28299 58.1593 9.33399C58.1152 9.33399 58.0711 9.33399 58.0332 9.33399ZM59.9242 3.59588H59.8801V4.4821C59.3128 3.83178 58.4934 3.45562 57.6298 3.46199C55.575 3.46199 54.0244 5.1898 54.0244 7.46592C54.0244 9.74203 55.575 11.4698 57.6298 11.4698C58.5249 11.4698 59.3758 11.0682 59.9431 10.3668V11.2913H62.0169V3.64051H59.9242V3.59588Z" fill="white"/>
<path d="M53.1046 3.62769H50.9678V11.2721H53.1046V3.62769Z" fill="white"/>
<path d="M42.4964 8.15442H36.7857C36.9811 8.98963 37.7374 9.57619 38.5884 9.54432C39.1872 9.57619 39.7734 9.31479 40.1516 8.84299H42.4333C41.8156 10.4624 40.2587 11.508 38.5443 11.4506C36.3886 11.5271 34.5795 9.81847 34.5039 7.63161C34.5039 7.56786 34.5039 7.5041 34.5039 7.44672C34.5922 5.19611 36.4642 3.44917 38.6892 3.53843C40.7882 3.62131 42.4711 5.32362 42.5531 7.44672C42.5531 7.67624 42.5405 7.89939 42.4964 8.12254M36.8235 6.66889H40.2776C40.0885 5.85918 39.37 5.29174 38.5506 5.30449C37.7311 5.30449 37.0189 5.86555 36.8235 6.66889Z" fill="white"/>
<path d="M83.8329 26.6249H87.2619C88.0939 26.6887 88.9133 26.4209 89.55 25.8726C90.0794 25.2988 90.3568 24.5273 90.3063 23.7431C90.3442 22.978 90.0731 22.2321 89.55 21.6774C88.9133 21.1291 88.0939 20.8613 87.2619 20.9251H83.8329V26.6249ZM89.8903 39.2742L85.1566 30.6225H83.8329V39.2742H78.2861V16.2772H87.6149C89.1844 16.2389 90.7413 16.5641 92.1658 17.2335C93.3508 17.7946 94.3341 18.6999 95.0022 19.8348C95.6325 20.9569 95.954 22.2321 95.9351 23.52C95.9603 24.9864 95.5191 26.4273 94.6744 27.6195C93.7353 28.8819 92.4053 29.7809 90.8925 30.1698L96.1368 39.2806H89.8903V39.2742Z" fill="#0F62AE"/>
<path d="M68.5092 32.5349C69.6438 31.1897 70.23 29.4491 70.148 27.6831C70.2363 25.9106 69.6501 24.1701 68.5092 22.8184C67.3809 21.6134 65.7925 20.9759 64.1537 21.0587C62.4959 20.9759 60.8823 21.6325 59.7415 22.8567C58.5943 24.2147 58.0081 25.9616 58.1026 27.7404C58.0144 29.5129 58.6006 31.2534 59.7415 32.6051C62.1619 35.0342 66.0636 35.0342 68.484 32.6051M58.2728 37.9925C56.5079 37.0107 55.0456 35.5698 54.0308 33.8101C52.9718 31.9675 52.4297 29.8635 52.4613 27.7341C52.4297 25.6046 52.9718 23.507 54.0308 21.6708C55.0456 19.9111 56.5079 18.4638 58.2728 17.482C61.9413 15.4673 66.3661 15.4673 70.0346 17.482C71.7932 18.4638 73.2492 19.9111 74.2451 21.6708C75.2851 23.5134 75.8146 25.611 75.7831 27.7341C75.8146 29.8635 75.2725 31.9611 74.2262 33.8101C73.2303 35.5761 71.7743 37.0298 70.0157 38.018C66.3535 40.0327 61.935 40.0327 58.2728 38.018" fill="#0F62AE"/>
<path d="M28.7676 0.930908V11.2723H34.2829V9.07902H31.0367V0.930908H28.7676Z" fill="white"/>
</svg>
