<svg width="393" height="86" viewBox="0 0 393 86" fill="none" xmlns="http://www.w3.org/2000/svg">
<g clip-path="url(#clip0_58_207)">
<path d="M0 85.9003H85.019V0.757324H0V85.9003ZM39.562 72.4622H13.362V14.1429H39.562V72.4622ZM71.657 72.4622H45.457V14.1954H58.1902C59.9484 14.192 61.69 14.5355 63.3157 15.2063C64.9413 15.8771 66.4191 16.8621 67.6648 18.1051C68.9104 19.3481 69.8995 20.8247 70.5755 22.4505C71.2515 24.0764 71.6012 25.8198 71.6046 27.5811L71.657 72.4622Z" fill="#106FF3"/>
<path d="M180.36 59.7024C179.602 61.0931 178.453 62.23 177.056 62.972C175.658 63.7139 174.074 64.0281 172.5 63.8756C170.169 63.9971 167.874 63.2653 166.042 61.8165C164.21 60.3678 162.967 58.301 162.544 56.0017H192.674V52.6159C192.684 49.962 192.172 47.332 191.168 44.876C190.164 42.4201 188.686 40.1864 186.82 38.3025C183.052 34.4977 177.929 32.3484 172.578 32.3275C167.228 32.3067 162.088 34.4159 158.29 38.1911C154.492 41.9664 152.347 47.0985 152.326 52.4585C152.326 63.9543 160.186 73.2455 172.421 73.2455C176.693 73.4374 180.909 72.2151 184.417 69.7673C187.926 67.3195 190.533 63.7825 191.835 59.7024H180.36ZM172.5 41.33C174.439 41.214 176.365 41.7254 177.992 42.7886C179.619 43.8518 180.863 45.4107 181.539 47.2354H163.199C164.018 45.454 165.335 43.9484 166.99 42.9005C168.645 41.8525 170.568 41.3071 172.526 41.33" fill="#106FF3"/>
<path d="M238.997 57.9783L230.901 32.4932H220.395L211.199 57.8996L203.575 32.4932H192.728L205.356 72.44H215.705L225.216 46.9549L233.862 72.44H244.159L258.176 32.4932H247.591L238.997 57.9783Z" fill="#106FF3"/>
<path d="M133.305 31.6787C131.229 31.65 129.175 32.1101 127.31 33.0219C125.444 33.9336 123.818 35.2716 122.563 36.928V32.4661H112.083V72.4392H122.746V50.6285C122.746 43.9095 126.1 41.0486 130.161 41.0486C134.903 41.0486 137.313 44.1457 137.313 49.4999V72.4392H148.16V48.0039C148.16 37.7154 142.632 31.6262 133.436 31.6262" fill="#106FF3"/>
<path d="M347.513 14.4578H336.85V72.4359H347.513V14.4578Z" fill="#106FF3"/>
<path d="M382.333 32.491V36.4017C380.834 34.8477 379.027 33.6247 377.028 32.8111C375.029 31.9976 372.883 31.6114 370.726 31.6774C361.923 31.6774 351.81 38.3177 351.81 52.4645C351.81 66.6112 362.29 73.2516 370.569 73.2516C372.795 73.3001 375.004 72.8546 377.038 71.9471C379.072 71.0395 380.88 69.6924 382.333 68.0023V72.4642H392.996V32.491H382.333ZM372.665 63.173C370.47 63.3544 368.272 62.8569 366.367 61.7477C364.463 60.6384 362.944 58.9708 362.016 56.9698C361.087 54.9687 360.793 52.7305 361.174 50.557C361.555 48.3835 362.592 46.3793 364.146 44.8148C365.699 43.2502 367.694 42.2006 369.862 41.8075C372.03 41.4144 374.265 41.6968 376.268 42.6164C378.27 43.5361 379.943 45.0488 381.06 46.9506C382.178 48.8524 382.686 51.0517 382.516 53.2519C382.303 55.7836 381.202 58.1579 379.408 59.9544C377.615 61.751 375.245 62.8539 372.718 63.068" fill="#106FF3"/>
<path d="M320.164 59.599C319.407 60.9923 318.259 62.1327 316.862 62.8791C315.465 63.6255 313.88 63.9451 312.304 63.7985C309.989 63.926 307.705 63.2134 305.872 61.7914C304.039 60.3694 302.778 58.3331 302.322 56.0558H332.478V52.5388C332.488 49.8848 331.977 47.2548 330.972 44.7989C329.968 42.343 328.491 40.1093 326.625 38.2253C324.759 36.3414 322.54 34.8441 320.097 33.8189C317.653 32.7937 315.032 32.2607 312.382 32.2504C309.733 32.2401 307.108 32.7526 304.656 33.7586C302.205 34.7647 299.975 36.2447 298.094 38.114C294.296 41.8893 292.151 47.0214 292.13 52.3813C292.13 63.8772 299.99 73.1421 312.225 73.1421C316.497 73.334 320.713 72.1117 324.222 69.6639C327.731 67.2161 330.337 63.6791 331.639 59.599H320.164ZM312.304 41.2266C314.245 41.1209 316.169 41.6394 317.795 42.7065C319.421 43.7736 320.664 45.3334 321.343 47.1583H303.003C303.831 45.376 305.153 43.8694 306.811 42.8178C308.469 41.7663 310.394 41.214 312.356 41.2266" fill="#106FF3"/>
<path d="M279.973 48.3103C275.231 46.6306 270.567 46.2106 270.567 43.9009C270.567 42.2212 271.799 40.6989 274.445 40.6989C275.445 40.5401 276.468 40.7852 277.288 41.3806C278.108 41.9759 278.659 42.8729 278.82 43.8747C278.833 44.0932 278.833 44.3123 278.82 44.5309H289.3C288.933 35.8958 282.724 31.6702 274.183 31.6702C265.642 31.6702 259.93 36.9194 259.93 43.8222C259.93 51.1712 264.777 54.0583 269.519 55.6593C274.261 57.2603 279.108 57.7327 279.108 60.1999C279.108 62.6671 277.982 63.7432 274.943 63.7432C274.395 63.8169 273.839 63.7816 273.305 63.6393C272.772 63.497 272.272 63.2505 271.833 62.9139C271.395 62.5773 271.028 62.1574 270.752 61.6781C270.476 61.1988 270.298 60.6697 270.227 60.1212C270.227 59.9899 270.227 59.8587 270.227 59.7275H259.38C259.642 68.8087 264.856 73.2706 274.864 73.2706C284.453 73.2706 289.353 67.0239 289.353 60.1474C289.353 53.2709 284.689 50.0951 279.999 48.4153" fill="#106FF3"/>
</g>
<defs>
<clipPath id="clip0_58_207">
<rect width="393" height="85.143" fill="white" transform="translate(0 0.757324)"/>
</clipPath>
</defs>
</svg>
